{"glyphs":{"0":{"ha":789,"x_min":-3,"x_max":690,"o":"m 268 1011 q 224 987 242 1011 q 185 900 206 963 q 154 833 171 853 q 121 807 138 813 q 88 807 104 801 q 56 817 71 813 q 30 821 42 822 q 11 803 18 819 q 0 747 3 779 q 0 674 -3 714 q 14 592 3 635 q 46 504 25 549 q 90 408 69 457 q 132 324 111 360 q 174 270 153 288 q 219 268 196 253 q 268 153 243 206 q 290 108 278 131 q 313 65 301 85 q 336 31 325 46 q 358 11 347 17 q 393 5 374 -3 q 433 31 413 13 q 476 72 454 49 q 517 112 497 94 q 556 135 538 129 q 588 122 574 140 q 627 93 611 93 q 653 115 643 93 q 667 176 663 136 q 671 268 671 215 q 672 429 665 347 q 685 594 679 511 q 682 737 690 683 q 657 820 674 790 q 617 861 640 850 q 567 876 593 872 q 516 881 542 879 q 469 893 490 883 q 407 932 436 911 q 353 970 378 953 q 307 999 328 988 q 268 1011 286 1011 m 282 803 q 292 804 285 803 q 313 803 299 806 q 347 794 326 801 q 400 768 368 786 q 479 719 457 732 q 508 702 501 707 q 518 690 515 697 q 539 657 521 683 q 569 585 568 615 q 564 526 571 554 q 549 468 557 497 q 553 400 542 439 q 563 345 563 361 q 554 324 563 329 q 531 321 546 319 q 497 317 515 322 q 456 294 482 314 q 408 255 429 275 q 377 222 386 235 q 386 219 368 208 q 346 258 357 232 q 333 314 335 283 q 335 379 331 344 q 344 444 340 414 q 347 500 347 475 q 333 537 346 525 q 292 546 319 549 q 213 518 264 543 q 182 523 192 510 q 172 560 172 536 q 178 612 171 583 q 199 664 186 640 q 208 703 204 676 q 219 754 211 729 q 242 795 228 779 q 282 803 256 811 "},"1":{"ha":394,"x_min":1,"x_max":278,"o":"m 81 -58 l 88 -225 q 120 -299 107 -281 q 143 -314 133 -318 q 160 -290 153 -310 q 174 -248 167 -269 q 188 -210 181 -226 q 206 -197 194 -194 q 214 -54 215 -118 q 210 -1 214 -28 q 199 46 207 25 q 180 80 192 67 q 150 94 168 93 q 110 110 115 94 q 113 146 106 126 q 143 199 121 169 q 181 231 161 214 q 212 268 201 247 q 217 316 222 289 q 178 379 211 343 q 225 493 204 439 q 259 590 246 547 q 275 659 272 632 q 268 692 278 686 l 199 588 q 203 615 199 596 q 212 656 207 633 q 219 699 217 678 q 219 733 222 721 q 210 761 217 751 q 198 779 204 771 q 189 799 192 788 q 192 831 186 810 q 201 928 204 885 q 185 1003 197 972 q 153 1050 172 1033 q 115 1067 133 1067 q 58 1056 86 1069 q 16 1016 31 1042 q 8 953 1 990 q 53 872 14 917 q 83 806 79 846 q 81 719 86 767 q 69 706 79 707 q 46 705 58 704 q 22 703 33 706 q 9 688 11 701 q 16 647 7 675 q 53 567 25 618 q 31 464 39 514 q 20 373 24 421 q 25 289 17 325 q 28 247 28 269 q 28 201 29 224 q 25 150 26 176 l 81 -58 "},"2":{"ha":839,"x_min":-18,"x_max":685,"o":"m 254 60 q 282 76 267 76 q 314 65 297 75 q 348 42 331 56 q 379 19 365 28 q 404 14 393 11 q 421 39 415 17 q 483 3 450 13 q 546 -3 515 -6 q 603 10 576 0 q 649 34 631 21 q 676 60 668 47 q 678 81 685 74 q 682 103 681 86 q 676 134 683 121 q 647 147 668 147 q 581 115 625 146 q 529 100 557 100 q 477 108 501 100 q 437 127 453 117 q 421 143 421 138 q 440 154 435 156 q 445 148 444 153 q 443 139 446 143 q 438 140 440 135 q 438 167 436 146 q 449 233 440 188 q 451 257 443 242 q 473 291 460 272 q 499 330 486 310 q 518 365 513 350 q 533 407 524 378 q 553 473 543 436 q 570 549 563 510 q 578 624 578 589 q 570 683 579 658 q 539 713 561 707 q 487 743 503 722 q 463 785 471 764 q 449 822 454 806 q 428 838 443 838 q 368 847 386 839 q 344 863 350 854 q 342 880 339 871 q 344 894 344 889 q 337 897 344 899 q 303 886 329 896 q 280 965 303 940 q 228 989 257 989 q 172 968 199 989 q 136 914 144 947 q 68 857 99 886 q 19 803 42 832 q -10 747 -4 774 q -16 717 -18 721 q -3 716 -14 713 q 25 726 7 719 q 67 726 43 732 q 113 725 96 718 q 141 744 129 732 q 163 767 153 756 q 185 782 172 779 q 220 787 194 785 q 272 789 246 789 q 320 786 299 789 q 344 775 342 783 q 367 738 351 749 q 398 722 382 728 q 428 709 414 715 q 449 685 443 703 q 447 634 454 668 q 414 539 440 600 q 372 594 388 582 q 348 598 356 607 q 341 563 340 589 q 348 503 342 536 q 366 435 354 471 q 393 372 378 400 q 376 358 390 364 q 350 341 363 351 q 333 314 338 331 q 344 268 329 297 q 349 250 353 256 q 335 242 344 244 q 315 237 326 239 q 296 226 304 235 q 278 197 285 214 q 267 167 272 181 q 260 145 263 153 q 254 143 257 138 q 213 180 233 174 q 172 181 192 186 q 132 167 151 176 q 94 157 113 157 q 25 133 53 154 q -7 85 -3 111 q 12 33 -11 58 q 94 -3 35 7 q 133 0 118 10 q 164 -16 149 -10 q 200 -10 179 -22 q 254 60 221 3 "},"3":{"ha":683,"x_min":-7,"x_max":547,"o":"m 247 1136 q 189 1125 215 1136 q 157 1088 163 1114 q 97 1090 125 1089 q 49 1091 74 1092 q 11 1088 24 1090 q 17 1083 8 1088 q 31 1072 25 1079 q 34 1052 38 1064 q 4 1025 31 1040 q 4 997 -3 1006 q 27 984 11 988 q 66 983 43 981 q 113 990 89 986 q 162 998 138 993 q 206 1004 186 1003 q 313 968 274 982 q 368 945 351 954 q 384 928 385 936 q 372 908 383 919 q 341 878 360 896 q 303 831 322 860 q 309 817 306 828 q 317 792 313 806 q 324 768 321 779 q 331 754 328 757 q 312 717 319 739 q 297 676 304 694 q 283 649 289 658 q 268 650 276 639 q 230 681 246 674 q 202 683 214 688 q 181 668 190 679 q 163 647 172 657 q 142 630 153 636 q 115 629 131 624 q 33 605 56 621 q 14 572 10 589 q 46 542 18 556 q 115 525 74 528 q 150 519 131 525 q 190 511 169 514 q 230 513 210 508 q 268 539 250 518 q 285 532 278 549 q 299 488 293 515 q 313 431 306 461 q 331 386 319 401 l 310 365 q 342 301 336 325 q 340 263 347 278 q 317 241 333 249 q 281 227 300 233 q 245 211 263 221 q 219 185 228 201 q 218 170 217 179 q 220 152 219 161 q 218 136 221 143 q 206 129 215 129 q 138 147 176 132 q 65 174 99 163 q 13 183 32 185 q 4 150 -7 181 q 36 118 11 135 q 89 86 61 101 q 157 53 121 69 q 192 15 165 29 q 249 -1 219 0 q 301 15 278 -1 q 324 67 324 31 q 392 62 363 56 q 438 86 421 68 q 458 133 456 104 q 449 199 461 163 q 446 248 440 226 q 465 286 451 269 q 494 317 478 303 q 523 343 510 331 q 542 367 536 356 q 539 393 547 379 q 524 408 533 403 q 506 415 514 413 q 493 420 497 418 q 497 428 489 422 q 479 490 482 472 q 475 515 476 508 q 468 524 474 521 q 442 539 463 526 q 438 553 442 544 q 435 567 435 561 q 438 584 435 578 q 442 601 442 590 q 427 658 433 638 q 422 694 421 678 q 433 730 422 711 q 469 782 443 749 q 476 815 482 803 q 459 840 469 826 q 442 875 449 854 q 449 935 436 896 q 458 1004 461 974 q 438 1053 456 1035 q 392 1078 421 1072 q 324 1074 363 1083 q 301 1123 324 1110 q 247 1136 279 1136 "},"4":{"ha":881,"x_min":-7,"x_max":747,"o":"m 497 4 q 533 11 521 7 q 549 26 544 15 q 553 58 553 38 q 553 115 553 79 q 553 190 556 146 q 548 281 550 235 q 547 370 546 328 q 560 442 549 413 q 594 443 575 442 q 631 447 613 444 q 665 453 649 450 q 692 463 681 457 q 716 473 700 468 q 740 483 732 478 q 736 494 747 489 q 678 504 725 499 q 660 513 667 507 q 647 522 653 518 q 633 528 640 526 q 615 525 625 531 q 596 535 607 528 q 576 550 585 542 q 565 567 568 558 q 574 581 563 575 q 592 602 589 590 q 589 626 594 614 q 573 652 583 639 q 553 678 563 665 q 542 721 544 690 q 538 785 539 751 q 535 850 536 819 q 532 893 535 881 l 463 928 q 421 937 429 949 q 417 896 413 925 q 435 827 422 867 q 459 753 449 788 q 471 699 469 719 q 456 685 472 678 q 471 599 471 638 q 456 539 471 560 q 425 520 444 528 q 379 518 406 513 q 358 518 368 521 q 337 510 347 515 q 316 501 326 506 q 296 497 306 497 q 241 492 269 486 q 188 513 213 497 q 143 551 163 528 q 115 601 124 575 q 131 667 136 633 q 115 733 126 701 q 124 750 118 742 q 132 766 129 758 q 133 780 135 774 q 122 789 132 786 q 81 842 86 815 q 88 900 76 868 q 37 919 54 921 q 12 901 19 917 q 3 860 4 886 q 3 808 3 835 q 4 760 4 782 q -3 726 4 738 q 38 688 31 700 q 39 671 44 676 q 20 663 33 665 q 0 655 7 661 q -2 635 -7 649 q 32 594 3 622 q 65 571 60 581 q 65 553 71 561 q 51 535 60 544 q 40 511 42 525 q 51 477 39 497 q 101 428 64 457 q 164 444 146 449 q 185 426 182 440 q 186 392 189 411 q 189 363 183 372 q 214 361 194 354 q 282 407 233 368 q 340 402 314 413 q 393 386 367 392 l 456 296 q 437 223 450 263 q 415 150 424 183 q 410 93 407 117 q 442 67 413 69 q 447 77 439 69 q 468 91 456 85 q 493 99 481 97 q 513 93 506 101 q 517 64 519 85 q 497 4 515 43 "},"5":{"ha":803,"x_min":4,"x_max":700,"o":"m 128 838 q 93 846 113 838 q 56 863 74 854 q 25 876 38 871 q 10 872 13 881 q 6 843 7 860 q 6 808 4 828 q 17 761 8 788 q 23 726 22 746 q 22 690 24 707 q 17 650 21 671 l 72 490 l 79 365 q 89 349 85 354 q 93 338 93 343 q 74 319 75 329 q 86 301 74 310 q 124 288 99 293 q 183 282 150 282 q 217 274 199 279 q 254 267 235 269 q 294 269 274 265 q 336 289 315 274 q 350 283 344 297 q 361 248 356 269 q 374 203 367 226 q 392 171 381 181 q 381 164 386 165 q 371 157 376 163 q 403 106 397 125 q 401 76 408 88 q 378 59 394 65 q 342 48 361 53 q 306 37 324 43 q 281 18 289 31 q 279 6 278 13 q 281 -8 281 -1 q 279 -19 282 -14 q 267 -24 276 -24 q 199 -10 238 -21 q 128 9 160 1 q 78 15 96 17 q 72 -10 60 14 q 101 -34 78 -21 q 150 -58 124 -47 q 218 -86 181 -72 q 253 -115 226 -104 q 310 -126 281 -126 q 362 -114 339 -126 q 385 -72 385 -101 q 454 -76 424 -81 q 503 -59 485 -72 q 525 -23 521 -46 q 517 32 529 0 q 510 69 506 53 q 528 97 515 85 q 556 120 540 110 q 585 140 572 131 q 603 158 597 149 q 600 178 608 168 q 585 189 594 186 q 567 194 575 192 q 554 198 558 196 q 558 206 550 200 q 540 253 543 239 q 536 271 538 267 q 529 276 535 275 q 503 289 524 278 q 502 299 503 294 q 496 310 501 304 q 502 324 501 315 q 503 338 503 332 q 472 356 494 353 q 424 358 450 358 q 371 358 397 357 q 329 372 344 360 q 276 399 296 401 q 242 386 257 397 q 214 363 228 375 q 176 358 200 350 q 187 377 182 369 q 197 379 192 385 q 206 492 207 442 q 191 570 204 535 q 142 608 178 606 q 105 619 110 608 q 107 646 100 631 q 135 685 114 663 l 149 761 q 201 752 182 753 q 229 755 219 751 q 243 764 239 758 q 253 775 247 769 l 406 754 q 442 765 424 754 q 474 786 460 776 q 500 798 489 796 q 517 782 511 800 q 542 740 525 750 q 578 735 558 731 q 619 753 599 739 q 658 785 640 768 q 686 819 675 803 q 697 844 697 836 q 681 882 700 871 q 631 894 663 893 q 560 889 600 896 q 482 872 521 882 q 466 874 474 869 q 449 886 458 879 q 429 898 440 893 q 406 900 418 903 q 374 894 390 900 q 339 883 357 889 q 303 874 321 878 q 267 872 285 869 q 256 904 263 889 q 237 928 249 917 q 204 942 225 939 q 183 935 192 950 q 166 898 174 919 q 149 857 158 876 q 128 838 140 838 "},"6":{"ha":669,"x_min":-6,"x_max":549,"o":"m 88 171 q 115 99 104 126 q 135 53 126 71 q 153 26 144 36 q 174 6 161 15 q 206 -16 186 -3 q 254 -51 225 -29 q 265 -68 260 -67 q 281 -64 271 -69 q 306 -51 290 -58 q 344 -44 321 -44 q 406 -40 375 -47 q 455 -15 436 -33 q 476 33 474 3 q 456 108 479 64 q 488 142 482 124 q 491 178 494 160 q 480 214 488 196 q 469 247 472 232 q 474 285 467 268 q 481 319 481 303 q 469 352 482 336 q 414 386 456 368 q 380 428 393 401 q 349 476 367 456 q 303 503 331 497 q 226 483 276 510 l 157 483 l 94 601 q 103 633 92 617 q 134 662 115 650 q 176 677 153 674 q 219 671 199 681 q 240 660 228 665 q 265 651 251 654 q 292 651 279 649 q 317 664 306 653 q 345 678 329 679 q 374 669 361 678 q 392 646 386 660 q 393 622 399 632 q 401 598 390 617 q 426 566 413 579 q 448 553 439 553 q 449 588 457 554 q 451 594 446 597 q 466 582 457 592 q 485 560 475 572 q 504 539 496 547 q 533 528 522 524 q 546 547 543 532 q 543 583 549 561 q 525 622 538 604 q 467 703 492 676 q 422 742 442 731 q 390 754 403 753 q 366 758 376 756 q 349 768 356 760 q 338 803 343 776 q 317 838 332 826 q 282 851 303 849 q 236 847 261 853 q 185 831 211 840 q 147 849 164 849 q 113 842 129 850 q 83 823 97 835 q 53 803 68 811 q 6 768 17 785 q -3 733 -6 751 q 7 694 -1 715 q 18 643 15 672 l 25 490 q 1 463 6 471 q 0 451 -4 454 q 15 448 4 449 q 38 444 26 447 q 60 431 50 440 q 74 400 69 421 q 56 356 61 382 q 54 301 51 331 q 66 238 57 271 q 88 171 75 204 m 358 60 q 333 62 347 54 q 303 81 318 69 q 283 89 292 89 q 265 89 274 89 q 249 92 257 89 q 233 108 242 96 q 221 126 228 114 q 208 153 214 139 q 199 181 203 168 q 199 199 196 193 q 190 229 201 207 q 168 274 179 251 q 153 313 157 297 q 164 324 149 329 q 190 310 169 324 q 230 291 210 297 q 260 294 250 285 q 254 351 269 304 q 269 359 251 361 q 311 347 288 357 q 356 323 335 338 q 379 296 376 308 q 387 247 385 275 q 400 199 389 219 q 404 140 411 167 q 386 81 397 113 q 375 65 381 69 q 358 60 369 60 "},"7":{"ha":663,"x_min":7,"x_max":569,"o":"m 261 -197 q 285 -147 282 -171 q 287 -101 289 -122 q 284 -61 285 -79 q 296 -31 283 -43 q 358 30 340 10 q 375 60 375 50 q 364 74 375 69 q 342 88 353 79 q 328 113 332 96 q 338 164 324 129 q 342 225 340 197 q 349 276 344 253 q 365 317 354 299 q 393 351 375 336 q 438 399 424 378 q 455 440 451 421 q 455 478 458 460 q 449 518 451 497 q 451 563 446 539 q 465 613 457 588 q 480 663 472 638 q 490 713 488 689 q 558 801 547 772 q 548 838 569 831 q 479 835 526 846 q 372 803 432 824 q 311 835 342 825 q 255 840 285 843 q 199 810 225 838 q 160 852 181 833 q 120 875 139 871 q 87 865 101 879 q 67 810 72 851 q 17 767 28 781 q 14 744 7 754 q 40 723 21 735 q 81 685 60 711 q 131 635 111 640 q 168 641 151 629 q 201 671 185 653 q 240 692 217 689 q 265 690 246 689 q 302 691 283 692 q 333 685 321 690 q 338 664 346 679 q 326 619 325 638 q 331 581 326 600 q 340 541 336 563 q 337 488 343 519 q 310 411 331 456 q 247 303 290 367 q 209 249 229 276 q 174 196 189 222 q 152 144 158 169 q 157 94 146 118 q 167 99 160 89 q 181 122 174 110 q 193 145 188 135 q 199 150 199 156 q 206 113 208 144 q 197 34 204 81 q 179 -66 189 -12 q 163 -167 169 -119 q 153 -251 156 -215 q 161 -297 151 -286 q 194 -285 171 -307 q 261 -197 218 -264 "},"8":{"ha":676,"x_min":-1,"x_max":592,"o":"m 206 1053 q 155 1031 174 1053 q 136 956 136 1008 q 94 951 107 961 q 78 924 82 942 q 73 887 74 907 q 67 851 72 867 q 49 827 61 836 q 30 806 36 818 q 29 772 24 793 q 67 713 35 751 q 80 672 76 694 q 88 628 83 650 q 100 585 92 606 q 129 553 108 565 q 103 526 114 542 q 81 490 92 511 q 55 439 68 464 q 36 392 42 414 q 35 351 31 369 q 60 324 39 333 q 26 265 40 293 q 7 215 15 242 q 4 171 -1 189 q 37 138 7 153 q 101 108 67 122 q 163 76 135 93 q 192 39 192 60 q 224 -3 192 -3 q 310 18 257 -3 q 394 54 346 39 q 483 81 442 69 q 556 113 532 96 q 585 149 579 131 q 584 185 592 167 q 565 223 576 204 q 539 260 553 242 q 518 296 525 279 q 497 368 503 335 q 481 426 490 401 q 451 466 471 451 q 386 483 431 481 l 386 490 q 445 555 428 506 q 463 678 463 604 q 465 754 464 725 q 465 803 467 783 q 460 835 464 822 q 449 864 456 849 q 429 900 442 879 q 400 956 417 921 q 394 976 400 971 q 375 983 388 981 q 344 991 363 986 q 303 1011 326 996 q 257 1037 282 1026 q 206 1053 232 1047 m 240 942 q 247 941 246 942 q 254 935 249 940 q 275 915 265 929 q 296 886 285 901 q 313 867 304 874 q 328 855 321 860 q 342 843 336 850 q 351 824 349 836 q 356 797 354 813 q 356 767 357 782 q 353 741 356 753 q 344 726 350 729 q 341 696 339 721 q 345 646 343 671 q 345 605 347 621 q 331 601 343 589 q 319 617 326 604 q 301 646 311 631 q 279 674 290 661 q 258 691 268 688 q 242 685 249 694 q 233 643 235 675 q 218 642 233 631 q 185 676 203 654 q 151 724 167 699 q 136 761 136 749 q 149 806 142 782 q 157 851 157 831 q 181 901 163 883 q 219 935 199 919 q 230 941 225 940 q 240 942 235 942 m 268 449 q 278 445 274 449 q 289 442 283 442 l 317 414 q 320 373 322 393 q 324 338 318 353 q 338 296 329 322 q 352 247 346 269 q 358 212 358 224 q 344 213 357 200 q 299 235 318 242 q 264 212 281 229 q 232 176 247 194 q 199 164 217 158 q 176 181 179 171 q 180 205 174 192 q 197 232 186 218 q 218 260 208 246 q 231 286 228 274 q 226 310 235 299 q 189 365 197 340 q 188 408 181 390 q 215 435 194 425 q 268 449 236 446 "},"9":{"ha":704,"x_min":3,"x_max":531,"o":"m 469 567 q 418 630 435 604 q 394 674 401 656 q 386 708 388 693 q 383 738 385 722 q 373 774 381 754 q 344 824 365 794 q 326 836 333 836 q 308 831 318 836 q 285 819 299 825 q 247 817 271 814 q 208 810 218 817 q 190 791 199 804 q 163 758 181 778 q 101 713 146 739 q 56 660 65 692 q 49 594 46 628 q 61 529 51 561 q 74 476 71 497 q 67 430 76 453 q 52 387 57 407 q 57 350 47 367 q 108 324 67 333 q 134 301 124 318 q 153 264 144 285 q 171 223 161 243 q 194 192 181 203 q 226 182 207 181 q 275 206 246 183 q 296 227 285 214 q 318 253 307 240 q 341 273 329 265 q 365 275 353 281 q 395 232 389 264 q 399 164 401 200 q 386 74 396 122 q 375 35 389 56 q 340 1 361 15 q 296 -15 319 -12 q 254 -3 272 -18 q 235 -3 246 3 q 211 -19 224 -8 q 186 -42 199 -29 q 164 -65 174 -56 q 128 -86 146 -86 q 97 -76 110 -86 q 78 -50 83 -65 q 81 -24 72 -35 q 95 24 96 15 q 86 35 94 33 q 66 47 78 38 q 46 94 54 56 q 23 108 33 113 q 8 85 13 103 q 3 42 3 67 q 11 -3 3 18 q 40 -100 35 -64 q 42 -156 44 -136 q 36 -182 39 -175 q 43 -191 33 -189 q 81 -194 53 -193 q 171 -204 110 -196 q 207 -206 200 -210 q 216 -197 214 -203 q 225 -188 218 -192 q 261 -190 232 -185 q 306 -198 288 -199 q 338 -192 324 -197 q 365 -179 351 -187 q 393 -162 378 -171 q 447 -122 432 -142 q 464 -81 461 -103 q 463 -34 467 -60 q 463 25 460 -8 q 465 72 465 46 q 464 122 464 97 q 466 167 464 147 q 476 199 468 188 q 515 245 510 229 q 515 269 521 261 q 501 284 510 278 q 497 303 492 290 q 520 358 510 329 q 531 419 531 386 q 517 488 531 451 q 469 567 503 525 m 213 699 q 240 690 228 699 q 268 671 253 682 q 288 658 278 660 q 305 656 297 657 q 319 652 313 656 q 331 636 325 649 q 342 617 336 631 q 351 587 347 603 q 356 556 356 571 q 351 532 357 540 q 351 495 346 524 q 361 438 356 467 q 370 392 367 410 q 365 386 374 374 q 341 433 354 413 q 314 456 328 453 q 288 437 300 458 q 268 358 276 415 q 251 349 268 346 q 213 363 233 351 q 174 392 192 375 q 157 421 157 408 q 149 449 154 431 q 142 484 144 467 q 142 515 139 501 q 157 532 144 529 q 222 567 211 550 q 224 601 232 585 q 201 635 215 618 q 192 671 186 653 q 199 688 192 682 q 213 699 207 693 "},"\u0000":{"ha":0,"x_min":0,"x_max":0,"o":""},"\r":{"ha":419,"x_min":0,"x_max":0,"o":""}," ":{"ha":419,"x_min":0,"x_max":0,"o":""},"d":{"ha":601,"x_min":-86,"x_max":385,"o":"m 328 1299 q 307 1275 315 1299 q 293 1215 299 1251 q 285 1135 288 1179 q 279 1049 282 1090 l 244 715 l 168 701 q 91 705 115 717 q 54 668 67 693 q 34 613 42 643 q 8 563 26 583 q -70 473 -54 518 q -76 382 -86 428 q -39 291 -65 336 q 8 201 -12 246 q -6 158 0 179 q -10 122 -10 140 q 1 90 -10 103 q 16 73 7 79 q 35 63 25 67 q 57 56 46 57 q 133 64 101 63 q 185 66 164 65 q 217 69 206 67 q 237 82 229 72 q 249 112 244 92 q 258 167 253 132 q 281 128 271 146 q 297 89 290 110 q 310 42 304 68 q 321 -21 315 15 q 324 -26 321 -24 q 328 -28 325 -28 q 344 15 340 -28 q 349 125 347 58 q 353 271 350 192 q 369 424 357 350 q 379 557 385 497 q 342 653 374 617 q 353 722 342 683 q 372 799 365 761 q 374 869 379 836 q 335 924 368 903 l 363 1111 l 342 1292 q 328 1299 342 1299 m 168 569 l 175 563 q 188 522 178 542 q 212 483 199 501 q 238 452 225 465 q 258 431 250 439 q 260 408 261 422 q 257 378 260 394 q 251 349 254 363 q 244 326 247 335 q 230 313 236 315 q 216 309 224 310 q 200 305 208 308 q 182 292 192 301 q 154 267 167 276 q 126 257 142 257 q 115 258 121 257 q 99 271 110 260 q 71 330 83 303 q 64 389 58 357 q 74 405 67 399 q 90 417 82 411 q 106 428 99 422 q 113 444 113 433 q 122 475 115 454 q 138 517 129 496 q 154 553 146 538 q 168 569 163 569 "},"e":{"ha":736,"x_min":28,"x_max":599,"o":"m 467 743 l 307 792 q 233 788 271 789 q 169 778 196 786 q 132 755 142 771 q 140 708 122 739 q 57 642 78 679 q 37 562 36 604 q 49 475 38 519 q 64 389 61 431 q 47 361 56 376 q 34 333 39 346 q 28 308 29 319 q 36 292 28 297 q 84 238 60 274 q 129 156 108 203 q 165 53 150 110 q 182 -62 179 -3 q 191 -72 185 -68 q 217 -73 197 -75 q 274 -59 236 -71 q 376 -21 311 -47 q 411 -37 394 -33 q 449 -35 428 -42 q 497 -14 469 -29 q 564 28 525 1 l 599 257 l 557 188 l 515 208 l 481 56 l 369 49 l 238 63 l 189 333 l 265 396 q 315 378 294 378 q 353 388 336 378 q 381 415 369 399 q 404 447 393 432 q 494 438 461 439 q 543 443 526 438 q 563 459 560 449 q 566 481 567 469 q 565 505 565 493 q 571 528 564 517 q 561 597 563 557 q 553 672 560 636 q 527 729 546 707 q 467 743 508 751 m 342 681 q 378 677 357 681 q 425 674 399 674 q 415 635 419 656 q 410 597 410 615 q 420 561 411 578 q 453 535 429 544 q 397 481 429 496 q 326 463 364 465 q 248 467 289 461 q 168 479 207 474 l 147 556 l 217 604 l 265 653 q 290 674 271 668 q 342 681 310 681 "},"g":{"ha":729,"x_min":-49,"x_max":568,"o":"m 175 785 q 117 756 149 785 q 64 653 85 726 q 60 587 56 617 q 72 526 64 557 q 85 457 79 494 q 85 368 90 419 q 40 304 60 336 q 11 245 24 276 q 1 188 -1 214 q 44 135 19 151 q 95 113 69 119 q 146 103 121 107 q 189 90 171 100 q 224 56 210 75 q 254 26 238 38 q 294 14 271 14 q 356 35 317 14 q 377 -42 361 -1 q 406 -123 393 -83 q 422 -199 419 -162 q 404 -264 425 -235 q 379 -276 397 -276 q 338 -270 361 -276 q 290 -255 315 -264 q 245 -240 265 -246 q 213 -235 225 -235 q 203 -250 201 -236 q 185 -301 204 -285 q 138 -319 165 -317 q 79 -314 110 -322 q 28 -291 49 -306 q 2 -258 7 -276 q 22 -222 -3 -239 q 57 -183 43 -207 q 72 -137 71 -160 q 56 -99 72 -115 q 1 -83 40 -83 q -33 -104 -22 -83 q -46 -155 -43 -125 q -46 -218 -49 -185 q -40 -278 -43 -251 q -12 -355 -31 -314 q 43 -417 7 -396 q 128 -449 82 -440 q 220 -454 174 -457 q 313 -437 267 -451 q 397 -403 358 -424 q 458 -369 424 -390 q 518 -323 492 -347 q 556 -272 544 -299 q 550 -222 568 -246 q 482 -93 500 -154 q 457 19 464 -32 q 444 108 450 69 q 411 167 438 146 q 420 210 414 185 q 432 262 426 235 q 439 317 438 289 q 432 368 440 344 q 406 400 424 386 q 374 425 389 414 q 353 445 358 436 q 363 465 347 454 q 379 508 381 478 q 365 568 378 538 q 331 622 351 599 q 293 646 311 646 q 235 660 254 640 q 208 708 217 681 q 193 758 199 735 q 175 785 188 782 m 224 590 q 253 572 244 590 q 263 528 261 554 q 264 473 265 501 q 265 424 263 444 q 277 381 271 403 q 288 337 283 358 q 290 293 292 315 q 279 250 289 271 q 258 218 271 235 q 228 190 244 201 q 194 174 211 178 q 161 181 176 169 q 137 218 138 193 q 145 272 136 243 q 167 332 154 301 q 182 389 179 363 q 184 449 188 415 q 180 513 181 482 q 187 565 179 543 q 224 590 194 588 "},"h":{"ha":815,"x_min":17,"x_max":685,"o":"m 119 1354 q 100 1350 114 1354 q 71 1340 86 1346 q 33 1324 44 1332 q 19 1299 21 1317 q 20 1247 17 1281 q 29 1153 24 1213 q 40 1062 32 1114 q 55 953 47 1010 q 68 842 63 897 q 71 743 74 788 q 46 638 56 689 q 33 546 38 593 q 36 465 28 499 q 52 430 42 450 q 78 389 63 410 q 99 319 78 350 l 113 306 l 92 111 l 99 -56 q 130 1 114 -11 q 160 10 146 14 q 190 -6 175 7 q 217 -28 204 -19 q 257 -35 244 -39 q 271 -16 269 -31 q 266 22 272 -1 q 251 74 260 44 q 232 135 242 103 q 217 201 222 168 q 201 336 204 269 q 208 457 199 403 q 238 546 217 511 q 293 583 260 581 q 349 600 319 604 q 406 574 379 596 q 455 518 433 553 q 488 444 476 483 q 485 340 472 392 q 508 236 497 289 q 526 194 508 210 q 564 174 543 179 q 588 135 585 158 q 588 88 592 113 q 575 36 583 63 q 564 -14 567 10 q 569 -27 558 -22 q 594 -34 579 -32 q 624 -35 610 -36 q 640 -28 638 -33 q 668 2 656 -28 q 683 76 681 32 q 672 172 685 121 q 626 264 660 222 q 590 310 606 290 q 564 340 575 329 q 551 348 558 340 q 540 361 543 356 q 542 364 538 367 q 564 340 546 361 q 576 405 561 376 q 608 456 592 433 q 633 498 625 479 q 626 535 642 517 q 586 564 597 554 q 572 580 575 574 q 568 594 568 586 q 561 615 568 601 q 535 651 554 628 q 474 715 515 675 q 424 685 442 688 q 399 693 407 682 q 388 725 390 704 q 383 766 385 746 q 379 801 382 786 q 368 815 376 815 q 342 794 360 814 q 293 722 324 774 q 263 719 278 717 q 235 725 249 721 q 208 735 221 729 q 182 743 194 740 l 154 889 q 160 1003 154 940 q 169 1118 167 1065 q 166 1207 172 1171 q 133 1243 160 1243 l 126 1243 q 123 1278 118 1258 q 133 1314 128 1297 q 138 1342 139 1331 q 119 1354 138 1354 "},"i":{"ha":413,"x_min":4,"x_max":251,"o":"m 119 1278 l 85 1382 q 29 1340 43 1361 q 17 1299 15 1319 q 31 1257 19 1278 q 50 1215 42 1236 q 28 1160 36 1186 q 15 1110 19 1136 q 15 1063 10 1083 q 34 1023 18 1043 q 69 985 50 1003 q 119 944 92 964 q 202 1074 176 1022 q 232 1160 228 1126 q 223 1214 236 1193 q 189 1250 210 1235 l 119 1278 m 189 743 l 182 910 q 151 853 167 865 q 120 844 135 840 q 91 860 106 847 q 64 882 76 874 q 18 758 33 815 q 8 708 11 733 q 5 662 4 683 q 13 623 6 640 q 36 597 21 606 q 59 597 49 589 q 76 615 69 604 q 92 650 85 629 l 99 299 q 64 206 72 239 q 58 158 56 174 q 71 138 61 142 q 92 132 81 135 l 126 -35 q 117 -117 124 -87 q 111 -160 111 -146 q 120 -178 111 -175 q 158 -182 129 -182 q 208 -178 193 -183 q 224 -160 222 -174 q 221 -124 226 -146 q 209 -68 215 -101 q 201 10 203 -35 q 210 111 200 54 q 235 217 225 165 q 247 308 243 261 q 244 389 251 354 q 226 431 239 407 q 197 474 213 454 q 161 521 181 497 l 189 743 "},"j":{"ha":621,"x_min":15,"x_max":396,"o":"m 144 1186 q 97 1169 121 1183 q 59 1138 74 1156 q 44 1100 44 1119 q 68 1068 44 1081 q 85 1003 76 1033 q 99 948 92 975 q 110 901 106 921 q 128 883 113 882 q 158 890 143 883 q 200 915 176 899 q 242 944 218 936 q 283 965 267 953 q 303 1003 300 978 q 283 1082 307 1028 l 221 1103 q 193 1168 215 1150 q 144 1186 171 1186 m 199 808 q 154 742 169 774 q 144 714 147 728 q 141 688 140 700 q 149 664 142 675 q 172 644 157 653 q 147 574 151 596 q 148 544 143 553 q 165 532 153 535 q 188 519 176 529 q 206 486 199 510 q 210 410 214 463 q 175 322 183 353 q 169 274 167 290 q 182 253 172 258 q 203 243 192 249 l 238 76 q 253 26 246 56 q 265 -38 260 -4 q 272 -109 269 -72 q 276 -181 275 -146 q 279 -354 281 -264 q 238 -358 258 -357 q 199 -353 217 -358 q 169 -335 181 -347 q 154 -299 157 -322 q 127 -165 146 -226 q 87 -65 108 -104 q 45 -16 65 -26 q 15 -35 25 -6 q 57 -230 36 -147 q 98 -370 78 -312 q 138 -461 118 -428 q 175 -507 157 -494 q 231 -517 199 -525 q 296 -477 264 -508 q 353 -394 328 -446 q 390 -271 379 -342 q 394 -174 396 -219 q 389 -83 393 -128 q 378 10 385 -37 q 367 111 372 57 q 382 240 376 179 q 387 347 386 293 q 381 436 388 401 q 362 476 375 454 q 333 517 349 497 q 297 561 317 539 q 275 678 285 636 q 256 742 265 719 q 233 778 246 765 q 199 808 219 790 "},"l":{"ha":642,"x_min":10,"x_max":529,"o":"m 238 1278 q 185 1225 208 1258 q 149 1149 165 1196 q 133 1028 133 1101 q 109 947 118 986 q 95 874 100 908 q 87 810 90 840 q 78 757 83 781 q 65 706 63 731 q 73 658 67 681 q 83 615 79 635 q 78 583 88 596 q 31 523 43 543 q 22 493 19 503 q 37 478 25 483 q 61 465 49 474 q 82 440 74 457 q 85 389 90 424 q 92 349 88 356 q 97 347 96 343 q 92 353 97 350 q 71 340 86 356 q 40 292 47 314 q 33 251 32 271 q 41 213 33 232 q 57 174 49 194 q 66 128 65 153 q 65 79 67 104 q 60 28 63 54 q 57 -21 57 3 q 13 -110 15 -81 q 33 -147 10 -139 q 103 -143 57 -154 q 203 -111 149 -132 q 257 -167 231 -147 q 305 -187 281 -183 q 349 -160 329 -192 q 398 -203 372 -183 q 444 -228 424 -222 q 475 -219 464 -233 q 481 -160 486 -204 q 522 -122 514 -133 q 519 -101 529 -110 q 488 -80 510 -92 q 439 -42 465 -68 q 356 -27 379 -36 q 325 -7 332 -18 q 317 19 318 4 q 300 49 315 33 q 276 42 294 51 q 240 25 258 33 q 207 15 221 17 q 196 28 193 13 q 199 75 203 56 q 187 113 194 94 q 171 153 179 132 q 161 206 163 175 q 168 281 160 236 q 203 389 176 325 q 231 442 215 415 q 255 496 246 469 q 263 548 264 522 q 244 597 263 574 q 238 592 242 603 q 231 569 235 582 q 223 547 226 557 q 217 542 219 536 q 184 656 188 601 q 187 753 181 710 q 203 828 193 797 q 210 871 213 858 q 209 904 201 892 q 228 926 217 917 q 251 947 240 936 q 258 972 261 957 q 234 1034 253 1004 q 210 1090 215 1064 q 217 1151 204 1126 q 242 1197 229 1176 q 258 1235 254 1217 q 238 1278 261 1254 "},"k":{"ha":753,"x_min":6,"x_max":613,"o":"m 175 1313 l 175 1313 l 154 1264 q 136 1290 144 1293 q 120 1264 128 1288 q 106 1199 113 1240 q 92 1110 99 1158 q 79 1010 85 1061 q 68 913 74 958 q 58 833 63 868 q 50 785 54 799 q 31 715 42 751 q 13 640 19 678 q 6 564 6 603 q 22 486 7 525 q 33 488 25 478 q 51 516 42 497 q 72 558 61 535 q 90 598 82 581 q 103 623 99 615 q 106 618 107 631 l 78 424 l 106 368 q 81 243 90 303 q 67 128 72 183 q 56 24 61 74 q 43 -69 51 -25 q 68 -59 58 -75 q 83 -22 78 -43 q 92 35 89 3 q 138 183 113 93 q 168 382 163 272 l 182 361 l 203 403 q 248 341 229 376 q 281 264 267 306 q 306 176 296 222 q 328 83 317 131 q 356 -22 342 29 q 380 -116 367 -67 q 404 -201 393 -165 l 446 -347 q 467 -387 456 -376 q 486 -397 478 -399 q 499 -381 494 -394 q 501 -347 504 -368 q 495 -240 496 -303 q 494 -112 494 -178 q 494 14 494 -47 q 490 119 494 75 q 475 185 485 164 q 446 188 465 206 l 390 361 q 348 401 374 385 q 298 435 322 417 q 256 477 274 453 q 238 542 238 501 q 261 597 240 575 q 307 635 282 618 q 353 666 332 651 q 376 701 374 681 q 392 780 376 746 q 430 842 407 814 q 479 897 453 871 q 529 951 506 922 l 613 1090 q 588 1080 599 1082 q 564 1073 576 1078 q 535 1057 551 1068 q 497 1019 519 1046 q 444 947 475 993 q 369 826 413 901 l 349 854 q 317 834 331 854 q 289 789 304 814 q 253 740 274 764 q 203 708 233 717 q 175 718 185 703 q 165 757 165 733 q 170 806 164 781 q 189 847 176 832 q 211 892 204 868 q 215 939 218 915 q 201 984 213 963 q 168 1021 189 1006 q 191 1106 178 1063 q 210 1190 204 1150 q 210 1262 217 1229 q 175 1313 204 1294 "},"m":{"ha":926,"x_min":-49,"x_max":775,"o":"m 669 1292 q 638 1283 650 1292 q 617 1262 625 1275 q 604 1233 608 1249 q 597 1203 600 1217 q 594 1141 594 1172 q 590 1080 593 1110 q 581 1020 588 1050 q 561 963 575 990 q 521 851 540 910 q 484 733 501 793 q 453 613 467 672 q 428 499 439 553 q 417 385 426 426 q 397 316 408 343 q 374 270 386 289 q 354 226 361 251 q 353 327 349 276 q 361 429 357 378 q 365 531 365 481 q 347 632 364 582 q 327 688 339 661 q 304 743 315 715 q 283 798 293 771 q 268 854 274 825 q 273 906 265 881 q 292 955 281 931 q 315 1003 304 979 q 332 1050 326 1026 q 336 1066 335 1057 q 336 1081 338 1075 q 331 1090 335 1088 q 318 1089 326 1093 q 264 1036 286 1069 q 225 975 242 1003 q 217 941 214 956 q 225 911 219 926 q 216 876 225 892 q 196 842 207 861 q 183 869 196 856 q 154 874 169 883 q 149 863 151 864 q 146 867 147 863 q 143 877 144 871 q 139 886 142 883 q 117 892 128 893 q 96 886 106 892 q 78 872 86 881 q 68 854 71 864 q 34 751 40 806 q 39 644 28 697 q 48 621 39 631 q 68 607 57 611 q 68 189 89 397 q 63 172 76 167 q 28 187 49 176 q -10 204 8 197 q -32 194 -29 211 q -46 130 -43 165 q -47 57 -49 94 q -40 -17 -44 19 q -32 -85 -35 -54 q -18 -117 -32 -104 q 18 -135 -4 -131 q 15 -190 28 -164 q -4 -243 1 -215 q -17 -332 -15 -286 q -25 -421 -19 -378 q -30 -458 -25 -440 q -18 -490 -35 -475 q -1 -489 -7 -493 q 8 -478 6 -485 q 13 -462 11 -471 q 18 -446 15 -453 q 35 -347 33 -397 q 53 -243 38 -296 q 75 -258 60 -253 q 96 -250 90 -264 q 101 -203 101 -226 q 99 -158 101 -181 q 95 -112 97 -135 q 96 -65 93 -89 q 119 -66 110 -69 q 134 -54 128 -62 q 143 -35 140 -46 q 146 -15 146 -25 q 171 201 168 90 q 168 417 174 311 l 168 676 q 182 628 178 653 q 190 578 186 603 q 199 528 193 553 q 218 481 204 504 q 258 374 240 428 q 304 271 276 319 q 294 204 301 238 q 280 138 286 171 q 272 71 274 104 q 282 4 271 38 q 310 -34 288 -19 q 354 -33 332 -49 q 367 -24 360 -29 q 375 -33 375 -19 q 378 -63 378 -49 q 382 -92 379 -78 q 391 -119 385 -107 q 411 -142 397 -132 q 435 -142 425 -146 q 452 -131 446 -139 q 461 -114 458 -124 q 461 -97 464 -104 q 452 -34 456 -64 q 454 29 449 -4 q 471 163 460 96 q 504 296 482 229 q 538 439 526 368 q 561 582 550 510 q 585 423 572 500 q 597 264 597 346 q 590 255 594 254 q 581 260 586 256 q 569 271 576 265 q 554 276 563 276 q 544 264 546 272 q 542 247 542 256 q 542 230 542 239 q 540 214 543 221 q 558 109 546 161 q 583 4 569 57 q 611 -101 597 -49 q 633 -206 625 -153 q 655 -319 639 -262 q 676 -433 671 -375 q 678 -458 679 -446 q 677 -481 678 -469 q 677 -502 676 -492 q 683 -522 678 -512 q 699 -521 693 -525 q 709 -510 706 -517 q 715 -497 713 -504 q 719 -483 717 -489 q 720 -499 719 -490 q 723 -515 721 -508 q 731 -526 725 -522 q 747 -528 736 -531 q 774 -491 774 -518 q 769 -440 775 -464 q 747 -338 747 -392 q 740 -236 746 -285 q 738 -193 738 -215 q 739 -149 739 -171 q 737 -106 739 -126 q 726 -65 735 -85 q 705 -53 721 -50 q 683 -65 689 -56 q 697 1 689 -25 q 715 49 706 26 q 731 97 724 72 q 740 163 738 122 q 733 188 746 178 q 704 189 721 199 q 694 178 699 183 q 690 189 690 174 q 681 264 682 219 q 682 356 681 308 q 685 449 683 404 q 683 525 686 493 q 672 535 683 535 q 661 531 661 536 q 660 629 658 581 q 664 726 663 678 q 664 822 665 775 q 654 918 663 869 q 635 988 633 939 q 646 1092 636 1036 q 665 1203 656 1149 q 669 1292 675 1258 "},"o":{"ha":544,"x_min":-6,"x_max":476,"o":"m 283 643 q 221 608 254 643 q 156 565 192 582 q 81 525 119 549 q 8 459 22 494 q 2 388 -6 424 q 28 314 10 351 q 54 242 47 276 q 74 135 68 183 q 89 53 79 88 q 118 0 99 18 q 182 -17 138 -18 q 238 -32 219 -12 q 267 -76 257 -51 q 283 -122 276 -101 q 306 -143 290 -143 q 360 -115 331 -143 q 406 -25 390 -87 q 428 43 417 10 q 445 107 439 76 q 449 162 451 138 q 429 203 446 186 q 453 282 442 244 q 469 348 461 314 q 474 404 476 382 q 444 452 469 431 q 390 494 418 474 q 340 535 363 514 q 317 585 317 557 q 310 631 321 618 q 283 643 300 643 m 306 419 q 311 413 311 419 q 331 393 328 406 q 330 364 335 381 q 316 328 325 347 q 299 290 307 310 q 289 252 292 271 q 294 218 286 233 q 325 85 340 133 q 256 38 310 38 q 224 51 232 35 q 214 91 215 67 q 213 142 213 115 q 210 189 214 169 q 200 243 206 208 q 190 308 194 278 q 188 353 186 338 q 200 350 189 368 q 223 321 213 325 q 242 324 233 317 q 259 348 251 332 q 274 380 267 364 q 290 408 282 396 q 306 419 297 419 "},"n":{"ha":926,"x_min":3,"x_max":754,"o":"m 640 1104 l 626 1104 q 615 1089 615 1104 q 619 1063 614 1074 q 636 1007 625 1033 q 658 955 647 981 q 677 903 669 929 q 682 847 685 876 q 621 899 650 889 q 577 881 592 910 q 568 783 563 853 q 613 597 574 714 q 589 579 601 589 q 567 558 576 569 q 553 533 557 546 q 557 507 549 519 q 599 393 596 439 q 590 312 603 347 q 560 244 578 276 q 536 174 542 213 q 503 257 533 218 q 436 333 474 296 q 365 407 399 369 q 321 486 331 444 q 262 718 300 607 q 182 944 224 829 q 157 995 169 968 q 133 1042 144 1022 q 113 1069 122 1061 q 96 1065 103 1078 q 86 1014 89 1053 q 85 903 83 975 q 31 856 46 885 q 17 792 17 828 q 27 717 17 757 q 51 635 38 676 q 74 554 64 594 q 85 479 85 514 q 71 478 79 479 q 57 472 63 478 q 56 413 54 439 q 59 361 57 386 q 62 310 61 336 q 57 250 63 283 q 53 240 57 235 q 43 250 49 244 q 15 249 28 261 q 8 222 3 238 q 18 185 8 214 q 41 117 28 156 q 67 35 54 78 q 85 -42 79 -8 q 81 -101 88 -65 q 68 -172 75 -136 q 56 -241 61 -208 q 57 -292 51 -274 q 73 -339 63 -315 q 95 -360 83 -362 q 117 -318 107 -358 q 133 -174 128 -278 q 160 -32 139 -106 q 196 125 181 42 q 197 143 196 133 q 199 163 199 153 q 195 181 199 172 q 182 194 192 189 q 170 188 176 194 q 159 178 164 182 q 151 174 154 174 q 147 188 147 175 q 153 358 142 271 q 175 528 164 444 q 174 428 167 471 q 200 353 182 385 q 242 301 218 322 q 293 264 267 279 q 326 210 303 240 q 369 151 350 181 q 394 94 388 121 q 376 49 400 67 q 364 15 358 35 q 388 -28 369 -4 q 432 -82 407 -53 q 480 -144 457 -111 q 518 -215 503 -178 q 529 -292 533 -251 q 538 -333 524 -312 q 578 -347 551 -353 q 585 -303 586 -335 q 584 -240 585 -271 q 587 -187 583 -208 q 606 -174 590 -165 q 654 -174 632 -189 q 682 -139 676 -160 q 687 -58 690 -103 q 676 31 683 -14 q 661 121 668 76 q 654 201 654 165 q 667 261 654 232 q 695 319 681 290 q 722 377 710 349 q 731 438 733 406 q 719 488 731 458 q 699 544 708 517 q 690 592 690 571 q 710 618 689 613 q 745 655 736 626 q 753 724 754 683 q 742 814 751 765 q 724 910 733 863 q 732 941 729 925 q 724 972 735 957 q 690 1043 708 1008 q 640 1104 672 1078 "},"p":{"ha":582,"x_min":-7,"x_max":467,"o":"m 64 743 l 50 743 q 34 701 38 743 q 29 594 31 658 q 24 450 28 529 q 8 299 21 371 q 2 160 -7 219 q 43 69 11 101 q 31 -1 43 38 q 12 -77 19 -39 q 8 -150 4 -115 q 43 -208 11 -185 l 22 -396 l 36 -576 q 69 -569 57 -589 q 88 -512 82 -550 q 97 -426 94 -475 q 99 -333 99 -378 l 140 0 l 210 21 q 287 13 261 3 q 326 48 313 24 q 347 102 339 72 q 369 153 354 132 q 451 242 435 197 q 456 334 467 288 q 417 427 444 381 q 369 521 390 474 q 386 561 381 542 q 393 597 392 578 q 383 632 394 617 q 344 654 367 647 q 321 660 333 658 q 216 653 253 651 q 161 649 179 654 q 138 622 143 643 q 126 549 132 600 q 103 588 114 569 q 85 627 93 606 q 72 676 76 649 q 64 743 67 704 m 251 465 q 268 460 263 465 q 279 444 274 456 q 308 392 294 418 q 321 333 321 365 q 309 313 318 321 q 290 299 300 306 q 273 287 281 293 q 265 271 265 281 q 258 233 265 258 q 240 186 250 208 q 222 152 231 164 q 210 153 213 140 q 192 194 204 174 q 168 232 181 214 q 144 263 156 250 q 126 285 132 276 q 121 307 121 293 q 123 337 121 321 q 130 367 125 353 q 140 389 135 381 q 152 406 146 401 q 166 412 158 410 q 183 417 174 414 q 203 431 192 419 q 227 453 214 442 q 251 465 240 465 "},"q":{"ha":899,"x_min":6,"x_max":778,"o":"m 439 882 q 423 875 433 876 q 397 868 413 874 q 322 839 347 850 q 283 820 297 828 q 258 808 268 813 q 231 799 249 804 q 206 806 218 797 q 181 825 193 814 q 156 847 168 836 q 132 858 143 857 q 110 848 121 860 q 92 806 100 836 q 67 698 81 751 q 47 600 54 644 q 44 522 40 556 q 71 472 47 488 q 38 350 53 407 q 15 249 25 300 q 8 167 6 199 q 28 126 11 142 q 69 97 46 110 q 117 72 92 83 q 165 47 143 61 q 202 16 188 33 q 217 -28 217 -1 q 224 -87 214 -69 q 251 -104 233 -106 q 294 -85 269 -103 q 349 -35 319 -67 q 411 17 369 -14 q 494 83 453 47 q 532 32 506 63 q 626 -35 558 1 q 697 -77 663 -56 q 772 -104 731 -99 q 765 -66 778 -83 q 732 -33 753 -49 q 687 -3 711 -18 q 643 26 663 11 q 614 59 624 42 q 613 97 604 76 q 597 120 618 108 q 550 153 576 132 q 578 214 565 179 q 585 285 590 249 q 591 375 583 335 q 610 449 599 415 q 633 512 621 482 q 652 572 646 542 q 657 635 658 603 q 640 708 656 668 q 545 764 575 735 q 501 818 515 793 q 478 859 488 843 q 446 875 469 875 q 439 882 446 882 m 376 743 q 393 739 388 743 q 404 729 399 735 q 432 684 422 718 q 451 608 442 650 q 475 520 461 565 q 515 444 489 475 q 502 407 513 432 q 478 354 492 382 q 453 301 465 326 q 432 264 440 276 q 390 285 421 274 q 356 322 369 296 q 328 368 343 347 q 302 390 317 379 q 275 413 288 401 q 244 438 260 425 q 232 431 232 435 q 236 417 232 426 q 243 392 240 407 q 238 354 246 378 q 249 319 235 339 q 284 279 264 299 q 324 242 304 260 q 356 215 344 225 l 342 201 q 301 167 321 181 q 265 153 281 153 q 224 174 244 153 q 180 258 197 215 q 168 347 163 300 q 170 398 171 363 q 168 473 169 433 q 166 549 167 513 q 168 604 165 586 q 208 638 183 614 q 262 684 233 661 q 320 725 290 707 q 376 743 350 743 "},"r":{"ha":597,"x_min":0,"x_max":469,"o":"m 64 1125 l 57 1125 q 41 1083 44 1125 q 36 976 38 1040 q 31 832 35 911 q 15 681 28 753 q 8 542 0 601 q 43 451 17 483 q 35 381 46 419 q 18 305 25 343 q 15 232 11 267 q 50 174 18 197 l 29 -14 l 43 -194 q 76 -187 64 -207 q 95 -131 89 -168 q 103 -44 101 -93 q 106 49 106 4 l 147 382 q 160 336 154 361 q 167 282 164 314 q 168 208 171 250 q 170 185 165 200 q 183 151 175 171 q 202 106 192 131 q 224 56 213 82 q 255 -6 239 24 q 284 -58 271 -35 q 306 -94 297 -81 q 314 -104 314 -107 l 369 -486 q 396 -489 383 -492 q 417 -477 407 -486 q 432 -444 426 -468 q 429 -401 435 -424 q 416 -354 424 -379 q 401 -302 408 -329 q 390 -243 393 -275 q 392 -179 388 -212 q 400 -115 396 -146 q 407 -56 404 -83 q 404 -7 410 -28 q 384 39 399 14 q 354 86 369 64 q 314 139 336 111 q 336 202 338 169 q 317 268 335 235 q 273 335 300 301 q 217 403 246 369 l 376 535 q 454 624 439 579 q 459 716 469 669 q 423 809 449 763 q 376 903 397 856 q 392 943 386 924 q 397 979 396 960 q 390 1014 397 999 q 351 1036 374 1029 q 328 1042 340 1040 q 284 1033 299 1031 q 261 1044 269 1036 q 247 1064 253 1053 q 231 1083 240 1075 q 148 952 172 1010 q 113 847 124 894 q 94 899 101 868 q 83 968 88 931 q 74 1046 78 1006 q 64 1125 69 1086 m 258 847 q 275 842 269 847 q 286 826 281 838 q 290 803 294 814 q 276 783 285 793 q 257 763 267 774 q 244 736 247 751 q 246 715 242 725 q 256 694 250 704 q 267 673 261 683 q 272 653 272 663 q 265 615 272 640 q 247 568 257 590 q 228 534 238 546 q 217 535 219 522 q 199 576 211 556 q 175 614 188 596 q 151 645 163 632 q 133 667 139 658 q 133 681 128 675 q 146 691 138 686 q 163 701 154 696 q 175 715 172 707 q 185 741 183 728 q 190 767 188 754 q 195 790 192 779 q 210 813 199 801 q 234 835 221 824 q 258 847 247 847 "},"s":{"ha":782,"x_min":-18,"x_max":607,"o":"m 515 576 q 453 556 494 586 q 426 549 440 547 q 397 553 411 550 q 369 558 383 556 q 342 556 354 561 q 311 535 321 550 q 286 514 301 519 q 265 517 275 514 q 244 521 256 521 q 224 520 233 521 q 203 514 214 519 q 178 489 188 508 q 154 458 169 469 q 126 448 143 447 q 99 438 110 449 q 66 394 78 422 q 43 340 54 367 q 27 308 38 325 q 22 285 17 290 q 87 232 58 253 q 142 200 115 211 q 194 188 168 189 q 251 194 219 186 q 290 200 272 200 q 328 194 307 200 q 351 191 340 192 q 371 188 363 190 q 385 178 379 185 q 397 160 392 172 q 414 108 413 126 q 406 79 415 89 q 377 65 396 69 q 335 56 358 61 q 314 55 324 56 q 293 49 304 54 q 273 28 278 43 q 258 7 268 13 q 238 -10 247 -4 q 217 -21 228 -15 q 196 -23 206 -24 q 176 -22 186 -22 q 158 -24 167 -22 q 140 -35 149 -26 q 133 -42 135 -35 q 126 -56 132 -50 q 104 -56 115 -61 q 81 -44 93 -51 q 55 -31 68 -37 q 29 -28 42 -25 q 17 -41 24 -31 q 6 -65 11 -51 q -5 -90 0 -78 q -12 -111 -10 -103 q -15 -128 -12 -117 q -12 -139 -18 -139 q -3 -137 -7 -142 q 4 -125 1 -132 q 10 -113 7 -118 q 15 -111 13 -108 q 93 -122 42 -132 q 203 -97 144 -112 q 219 -97 211 -94 q 234 -104 226 -100 q 249 -111 242 -108 q 265 -111 257 -114 q 281 -100 275 -108 q 293 -82 288 -92 q 304 -63 299 -72 q 321 -49 310 -54 q 338 -48 329 -46 q 356 -52 346 -50 q 374 -56 365 -54 q 390 -56 382 -58 q 446 -21 422 -44 q 481 35 469 3 q 481 59 486 46 q 481 83 475 72 q 498 106 486 99 q 515 125 510 114 q 524 158 521 140 q 515 188 526 176 q 499 217 510 203 q 474 236 489 231 q 445 259 458 251 q 411 278 432 267 q 377 285 400 283 q 349 292 354 286 q 281 299 317 307 q 203 285 244 290 q 178 301 190 290 q 156 325 165 313 q 142 348 147 338 q 140 361 138 358 q 151 379 146 367 q 168 403 157 392 q 178 403 174 406 q 185 399 182 401 q 193 395 189 397 q 203 396 197 393 q 216 408 213 404 q 220 417 219 413 q 224 425 221 421 q 238 438 226 429 q 271 446 253 449 q 300 438 289 443 q 317 442 306 438 q 341 451 328 446 q 369 461 354 457 q 397 465 385 465 q 481 465 439 475 q 500 470 488 465 q 524 482 513 475 q 550 500 538 489 q 580 508 565 500 q 601 525 594 515 q 603 544 607 535 q 578 556 599 553 q 547 566 557 556 q 515 576 536 576 "},"t":{"ha":706,"x_min":6,"x_max":624,"o":"m 363 1326 q 303 1224 328 1279 q 263 1113 281 1175 q 244 979 244 1050 q 220 899 229 938 q 206 824 211 860 q 198 758 201 789 q 189 701 194 728 q 176 670 174 675 q 184 667 178 665 q 194 671 190 669 q 189 660 199 672 q 151 641 174 644 q 113 632 128 638 q 101 619 104 626 q 92 605 97 611 q 77 597 86 599 q 50 604 68 596 q 19 590 29 610 q 8 556 8 571 q 17 540 6 544 q 44 531 29 535 q 74 522 60 528 q 92 507 89 517 q 116 486 100 492 q 149 478 132 481 q 179 475 165 476 q 196 465 193 474 q 201 404 199 432 q 204 353 204 376 q 199 312 204 331 q 182 278 194 293 q 151 230 158 251 q 144 189 143 208 q 152 151 144 169 q 168 111 160 132 q 177 66 176 90 q 176 17 178 42 q 171 -34 174 -8 q 168 -83 168 -60 q 166 -149 169 -125 q 157 -187 163 -174 q 147 -209 151 -201 q 142 -224 143 -217 q 147 -244 142 -232 q 168 -278 153 -256 q 208 -199 196 -231 q 226 -145 221 -168 q 230 -104 231 -122 q 231 -68 229 -86 q 239 -28 232 -50 q 265 28 246 -6 q 276 58 275 40 q 272 98 276 76 q 263 144 268 119 q 258 194 258 168 q 289 251 281 207 q 299 343 297 294 q 293 465 300 399 q 351 410 324 429 q 401 389 375 393 q 446 417 426 385 q 495 371 469 390 q 541 347 521 351 q 572 357 561 342 q 578 417 583 372 q 616 455 608 443 q 615 476 624 467 q 584 497 606 485 q 536 535 563 508 q 479 567 507 564 q 430 565 451 569 q 397 558 408 561 q 390 569 385 554 q 399 589 396 579 q 399 607 401 597 q 390 625 397 617 q 374 621 385 628 q 349 607 363 614 q 321 597 336 600 q 293 604 306 593 q 297 632 288 610 q 319 685 307 654 q 338 749 331 715 q 335 813 344 783 q 331 856 326 833 q 344 901 336 879 q 358 944 351 924 q 363 979 365 964 q 354 1001 360 994 q 342 1010 349 1007 q 329 1020 335 1014 q 321 1042 324 1026 q 330 1115 315 1075 q 360 1194 344 1156 q 381 1268 375 1233 q 363 1326 386 1303 "},"u":{"ha":699,"x_min":3,"x_max":594,"o":"m 543 785 q 512 780 528 785 q 501 764 496 775 q 509 714 501 740 q 522 663 517 688 q 525 615 528 638 q 501 576 522 592 q 463 553 481 571 q 446 514 446 535 q 420 410 431 461 q 425 306 410 358 q 392 232 414 267 q 341 176 369 197 q 283 150 313 154 q 231 167 254 146 q 174 189 189 167 q 160 245 160 211 q 171 318 161 279 q 188 389 181 357 q 192 441 194 421 q 168 458 190 461 q 149 416 160 438 q 129 381 139 394 q 113 366 119 368 q 106 382 106 364 q 117 462 108 424 q 138 538 126 500 q 162 612 150 575 q 182 688 174 649 l 182 694 q 163 688 169 682 q 153 703 157 694 q 145 716 149 713 q 133 701 142 719 q 114 647 125 686 q 90 563 103 607 q 63 481 76 519 q 36 431 49 443 q 9 350 15 394 q 8 264 3 306 q 32 231 14 243 q 71 229 50 218 q 59 175 65 203 q 51 119 53 147 q 54 64 49 90 q 78 14 60 38 q 114 4 96 1 q 151 15 132 7 q 188 26 169 22 q 224 21 206 31 q 274 -49 256 -29 q 303 -68 293 -68 q 315 -53 313 -68 q 320 -17 318 -37 q 324 25 322 4 q 335 57 326 46 q 362 65 344 68 q 411 35 379 63 q 472 99 453 75 q 497 135 490 122 q 503 156 504 149 q 506 170 503 164 q 520 186 508 176 q 564 215 532 196 q 563 231 572 221 q 540 252 554 240 q 514 276 526 264 q 501 299 501 288 q 495 325 493 319 q 502 334 497 331 q 510 344 507 338 q 508 375 514 351 q 515 403 508 390 q 531 427 522 415 q 549 451 540 439 q 564 479 558 464 q 574 510 574 494 q 572 542 575 526 q 567 576 569 558 q 571 611 565 593 q 580 653 574 632 q 590 694 586 674 q 592 733 594 714 q 578 771 590 753 q 563 781 572 776 q 543 785 554 785 "},"v":{"ha":531,"x_min":0,"x_max":419,"o":"m 369 889 q 344 839 354 889 q 328 715 333 789 q 324 637 322 668 q 329 585 325 606 q 338 551 333 564 q 342 528 342 538 q 333 510 339 501 q 317 535 326 519 q 297 559 308 550 q 272 542 285 568 q 275 481 272 521 q 279 397 278 442 q 278 308 281 351 q 265 236 275 265 q 242 203 257 213 q 213 188 228 194 q 186 172 197 181 q 175 139 175 163 l 119 611 l 92 736 l 50 875 q 26 840 29 864 q 43 757 22 815 q 3 677 7 724 q 12 578 0 631 q 41 472 24 526 q 64 368 58 418 l 85 194 q 77 162 79 183 q 77 114 75 140 q 85 60 79 88 q 101 11 90 32 q 129 -22 113 -10 q 168 -28 146 -33 q 172 -101 168 -82 q 183 -126 175 -121 q 201 -131 190 -131 q 224 -146 211 -131 q 230 -125 226 -137 q 236 -90 233 -112 q 240 -32 239 -67 q 238 56 240 3 q 252 77 240 69 q 279 90 264 85 q 310 103 294 96 q 337 122 325 110 q 355 155 349 135 q 356 208 361 175 q 358 283 356 242 q 367 364 361 325 q 385 432 374 403 q 411 472 396 461 q 414 558 411 519 q 418 638 417 597 q 417 727 419 679 q 404 840 414 775 q 384 878 393 867 q 369 889 375 889 "},"w":{"ha":747,"x_min":-6,"x_max":660,"o":"m 613 1292 q 606 1280 607 1292 q 603 1255 604 1268 q 602 1233 603 1242 q 599 1229 601 1224 q 565 1233 572 1229 q 557 1222 557 1238 q 555 1133 554 1189 q 549 1024 556 1078 q 526 931 543 971 q 474 889 510 892 q 476 822 465 844 q 504 781 488 800 q 535 740 521 763 q 550 674 550 718 q 545 651 550 668 q 533 610 540 633 q 517 563 525 588 q 502 519 508 539 q 494 487 496 499 q 494 479 492 475 q 490 385 494 432 q 481 292 486 339 q 451 440 469 371 q 418 583 433 510 q 406 698 413 642 q 411 813 400 754 q 407 836 414 825 q 390 853 400 847 q 368 858 379 860 q 349 847 357 857 q 330 806 333 832 q 321 764 326 779 q 296 769 308 772 q 274 757 283 767 q 258 734 264 747 q 251 708 251 721 q 244 651 243 679 q 251 594 246 622 q 260 540 256 567 q 265 486 265 513 q 227 378 244 433 q 189 271 210 324 q 186 269 186 263 q 187 286 186 275 q 188 309 188 297 q 189 326 189 321 q 189 544 189 436 q 168 757 189 653 q 126 799 157 788 q 129 836 126 817 q 134 875 132 856 q 135 914 136 894 q 126 951 135 933 q 92 951 115 963 q 84 1003 86 978 q 78 1055 82 1029 q 69 1105 75 1081 q 50 1153 63 1129 q 38 1161 44 1161 q 25 1157 31 1161 q 16 1144 19 1153 q 15 1125 13 1135 q 22 1000 21 1063 q 50 875 24 938 q 51 855 56 864 q 36 840 47 846 q 15 815 21 829 q 8 783 10 800 q 7 749 7 767 q 1 715 7 731 q -5 622 -4 668 q 15 535 -6 576 q 32 528 24 526 q 50 535 40 529 q 68 547 60 540 q 85 556 76 553 q 97 491 90 511 q 109 455 104 471 q 116 419 114 439 q 113 354 118 399 q 97 317 101 346 q 92 255 93 289 q 91 190 90 221 q 92 146 92 158 q 99 111 92 125 q 117 85 106 97 q 142 62 128 74 q 168 35 156 50 q 172 14 171 31 q 171 -26 172 -3 q 168 -76 169 -50 q 165 -122 167 -101 q 164 -153 164 -142 q 168 -160 164 -165 q 183 -162 174 -165 q 203 -153 192 -158 q 210 -174 211 -164 q 206 -195 208 -185 q 203 -216 204 -206 q 210 -236 201 -226 q 243 -301 225 -268 q 293 -354 261 -333 q 308 -347 303 -354 q 316 -331 314 -340 q 317 -313 318 -322 q 314 -299 317 -304 q 302 -237 306 -272 q 299 -167 299 -203 q 305 -96 300 -131 q 321 -35 310 -61 q 336 46 331 1 q 343 136 342 90 q 342 228 344 182 q 335 313 340 274 q 351 251 342 274 q 371 212 360 228 q 394 184 382 196 q 419 156 406 172 q 446 117 432 140 q 474 56 460 93 q 487 -3 483 26 q 491 -62 490 -32 q 494 -122 492 -93 q 508 -181 497 -151 q 535 -206 519 -196 q 571 -215 550 -215 q 571 -137 576 -176 q 558 -59 565 -99 q 546 19 550 -19 q 550 97 542 58 q 565 167 565 128 q 571 243 565 207 l 571 250 q 564 243 571 243 q 565 224 564 219 q 567 241 567 229 q 569 260 568 253 q 571 250 571 268 q 582 260 579 253 q 585 276 585 267 q 585 294 586 285 q 585 313 585 304 q 582 431 585 371 q 585 549 579 490 q 603 542 594 540 q 619 551 613 544 q 627 569 625 558 q 626 590 629 579 q 611 674 626 632 q 585 757 596 715 q 606 760 597 754 q 619 774 614 765 q 625 794 624 783 q 626 813 626 804 q 627 895 626 854 q 633 972 628 936 q 635 1029 633 993 q 639 1103 636 1065 q 645 1176 642 1142 q 654 1229 649 1211 q 649 1271 660 1250 q 613 1292 639 1292 "},"x":{"ha":865,"x_min":13,"x_max":767,"o":"m 515 910 q 463 893 486 908 q 425 853 443 881 q 404 778 407 826 q 373 755 381 772 q 364 717 365 738 q 363 676 363 696 q 356 646 364 656 q 338 640 342 649 q 337 618 335 632 q 344 587 339 604 q 353 556 350 569 q 357 533 357 542 q 349 528 357 524 q 313 559 340 533 q 254 616 286 585 q 193 676 222 647 q 154 715 164 704 q 138 724 143 724 q 126 728 133 724 q 106 745 118 732 q 71 792 94 758 q 30 827 44 824 q 15 819 15 831 q 28 793 13 814 q 63 747 43 772 q 102 697 83 722 q 126 660 121 672 q 155 611 135 639 q 197 556 175 583 q 235 508 218 529 q 251 479 251 488 q 267 420 257 450 q 284 367 278 390 q 288 333 290 344 q 265 333 286 322 q 222 345 233 349 q 212 327 211 342 q 221 290 213 313 q 238 243 229 267 q 249 199 247 217 q 248 166 250 181 q 242 137 246 151 q 238 104 238 122 q 228 49 238 72 q 207 7 219 26 q 182 -31 194 -12 q 161 -69 169 -49 q 158 -118 156 -90 q 175 -187 160 -146 q 204 -185 193 -193 q 223 -164 215 -178 q 235 -133 231 -150 q 244 -104 239 -117 q 259 -40 254 -74 q 272 19 264 -7 q 292 60 279 44 q 335 69 306 75 q 344 77 344 64 q 339 111 343 90 q 330 156 335 132 q 328 194 325 179 q 353 182 343 182 q 371 190 364 182 q 381 210 378 197 q 386 240 385 224 q 383 333 389 278 q 454 210 418 265 q 518 122 485 163 q 578 76 551 82 q 635 -14 608 24 q 681 -68 663 -51 q 710 -78 700 -85 q 717 -35 719 -71 q 758 -9 750 -19 q 756 15 767 1 q 720 50 746 28 q 661 111 694 72 q 621 149 646 132 q 572 181 596 165 q 532 215 549 197 q 515 257 515 233 q 527 259 515 260 q 547 263 539 258 q 553 278 556 267 q 522 319 551 290 q 474 361 493 347 q 444 381 456 375 q 425 388 432 386 q 413 392 418 389 q 403 403 408 396 q 390 431 399 411 q 396 458 382 443 q 426 491 410 472 q 454 535 443 510 q 453 597 465 561 q 440 636 444 624 q 431 656 435 649 q 424 672 426 664 q 418 694 421 679 q 420 716 415 707 q 432 733 425 725 q 444 752 439 742 q 446 778 449 763 q 449 809 440 800 q 472 822 457 818 q 501 826 486 825 q 526 834 517 826 q 535 858 536 842 q 515 910 535 875 "},"y":{"ha":671,"x_min":25,"x_max":542,"o":"m 54 892 l 44 903 q 40 890 39 901 q 39 872 42 879 q 61 800 49 836 q 76 732 74 764 q 66 669 57 704 q 85 597 75 633 q 113 518 96 557 q 156 443 129 479 q 181 389 172 421 q 186 329 189 357 q 197 319 189 319 q 211 322 204 319 q 223 326 218 325 q 225 318 228 326 q 227 273 222 296 q 238 227 232 250 q 244 182 243 204 q 238 142 246 160 q 215 117 231 129 q 185 92 199 104 q 167 70 172 81 q 175 53 163 60 q 196 28 192 39 q 197 9 200 18 q 188 -8 194 0 q 175 -26 181 -17 q 165 -53 163 -43 q 174 -72 167 -64 q 189 -88 181 -81 q 197 -107 197 -96 q 185 -137 196 -124 q 164 -165 175 -151 q 145 -193 153 -179 q 142 -222 138 -207 q 145 -243 147 -235 q 137 -260 143 -251 q 124 -278 131 -268 q 113 -303 117 -287 q 98 -362 108 -333 q 76 -419 88 -392 q 52 -476 64 -447 q 32 -533 40 -504 q 35 -558 25 -557 q 63 -545 44 -558 q 106 -508 82 -532 q 151 -456 129 -483 q 191 -401 174 -428 q 214 -354 208 -374 l 283 -54 q 288 -1 289 -19 q 301 38 286 17 q 328 79 319 53 q 340 133 338 106 q 354 171 343 153 q 378 206 365 189 q 402 240 390 222 q 417 276 414 257 q 424 315 415 299 q 433 346 432 331 q 464 399 454 368 q 482 460 474 431 q 503 502 492 482 q 523 542 514 522 q 537 582 532 561 q 538 626 542 603 q 478 556 508 592 q 424 488 447 521 q 409 442 426 461 q 371 415 392 422 q 360 399 367 411 q 348 376 354 388 q 336 359 342 365 q 329 361 331 353 q 310 417 325 393 q 272 461 294 440 q 260 504 264 481 q 249 551 256 528 q 232 594 243 574 q 199 628 221 615 q 126 759 158 693 q 54 892 94 825 "},"z":{"ha":900,"x_min":11,"x_max":775,"o":"m 67 1111 q 52 1110 60 1111 q 40 1104 44 1110 q 19 1042 26 1076 q 11 976 11 1008 q 33 987 21 982 q 58 993 44 992 q 83 991 71 994 q 104 976 94 988 q 112 949 113 964 q 108 921 111 935 q 102 894 104 907 q 106 871 100 881 q 147 883 126 876 q 190 894 168 890 q 234 899 211 899 q 281 892 257 900 q 349 906 311 914 q 424 878 388 899 q 480 874 454 872 q 536 864 506 875 q 456 808 493 842 q 406 715 419 774 q 383 639 390 678 q 369 559 375 600 q 358 477 364 518 q 343 397 353 436 q 322 380 333 386 q 299 368 311 374 q 276 356 288 363 q 256 340 265 350 q 210 285 229 317 q 174 217 190 253 q 144 144 158 181 q 117 72 131 107 q 81 49 101 56 q 51 22 61 43 q 84 18 67 22 q 104 -12 101 14 q 112 -17 107 -18 q 122 -12 117 -15 q 132 -6 126 -8 q 142 -6 138 -3 q 186 8 164 3 q 231 15 208 14 q 276 9 254 15 q 319 -12 299 3 q 408 -41 364 -35 q 486 -21 451 -47 q 526 -8 506 -10 q 568 -4 547 -6 q 609 1 589 -3 q 646 22 629 6 q 674 23 660 28 q 702 10 689 18 q 728 -5 715 3 q 754 -12 742 -12 q 765 2 760 -7 q 773 21 771 11 q 772 39 775 31 q 758 50 768 47 q 723 63 740 58 q 688 72 706 67 q 653 84 671 76 q 619 107 636 92 q 583 128 601 113 q 549 143 565 143 q 550 118 547 132 q 554 91 553 104 q 553 67 556 78 q 538 50 550 56 q 485 42 511 42 q 431 48 458 43 q 378 60 404 53 q 326 72 351 67 q 282 81 304 78 q 246 100 260 85 q 237 118 239 108 q 238 135 235 128 q 247 148 240 143 q 263 150 254 153 q 285 163 276 153 q 299 188 293 174 q 310 219 306 203 q 322 249 315 235 q 356 295 335 275 q 401 326 378 315 q 424 358 415 339 q 437 399 432 378 q 445 441 442 419 q 454 482 449 463 q 471 547 464 514 q 496 594 478 579 q 509 597 501 600 q 524 589 517 593 q 537 582 531 585 q 546 588 543 579 q 571 659 563 619 q 585 740 579 699 q 601 820 592 781 q 632 892 611 860 q 642 898 636 897 q 652 900 647 899 q 660 906 657 901 q 663 921 664 910 q 660 941 665 936 q 643 935 654 946 q 608 972 632 953 q 553 1002 583 990 q 492 1013 522 1014 q 439 990 461 1011 q 384 970 415 969 q 319 984 353 971 q 249 1019 285 997 q 179 1061 213 1040 q 117 1097 146 1082 q 67 1111 88 1111 "},"a":{"ha":468,"x_min":7,"x_max":367,"o":"m 258 1097 q 232 1063 246 1079 q 207 1021 218 1046 q 189 958 196 996 q 182 861 182 921 q 125 854 146 869 q 96 814 104 839 q 89 761 88 789 q 99 715 90 733 l 78 521 q 53 403 72 464 q 20 284 33 342 q 11 174 7 226 q 57 83 15 122 q 33 -8 31 21 q 57 -49 36 -37 l 113 111 l 140 250 l 196 403 l 244 361 l 265 132 l 349 -14 q 364 117 361 61 q 365 218 367 172 q 359 307 363 264 q 356 403 356 350 q 328 442 338 415 q 315 502 319 468 q 310 575 311 536 q 307 653 310 614 q 316 740 317 707 q 308 795 315 774 q 290 834 300 817 q 272 875 281 851 q 275 970 275 932 q 273 1033 275 1008 q 267 1072 271 1058 q 258 1097 264 1086 m 210 785 l 210 653 l 231 528 q 203 578 215 561 q 181 597 190 594 q 163 588 171 599 q 147 556 156 576 q 157 597 147 561 q 178 675 167 633 q 210 785 192 724 "},"A":{"ha":468,"x_min":7,"x_max":367,"o":"m 258 1097 q 232 1063 246 1079 q 207 1021 218 1046 q 189 958 196 996 q 182 861 182 921 q 125 854 146 869 q 96 814 104 839 q 89 761 88 789 q 99 715 90 733 l 78 521 q 53 403 72 464 q 20 284 33 342 q 11 174 7 226 q 57 83 15 122 q 33 -8 31 21 q 57 -49 36 -37 l 113 111 l 140 250 l 196 403 l 244 361 l 265 132 l 349 -14 q 364 117 361 61 q 365 218 367 172 q 359 307 363 264 q 356 403 356 350 q 328 442 338 415 q 315 502 319 468 q 310 575 311 536 q 307 653 310 614 q 316 740 317 707 q 308 795 315 774 q 290 834 300 817 q 272 875 281 851 q 275 970 275 932 q 273 1033 275 1008 q 267 1072 271 1058 q 258 1097 264 1086 m 210 785 l 210 653 l 231 528 q 203 578 215 561 q 181 597 190 594 q 163 588 171 599 q 147 556 156 576 q 157 597 147 561 q 178 675 167 633 q 210 785 192 724 "},"B":{"ha":681,"x_min":-10,"x_max":593,"o":"m 210 1285 q 199 1281 204 1285 q 189 1271 194 1276 q 155 1217 168 1247 q 132 1151 142 1186 q 113 1077 122 1115 q 92 1000 104 1039 q 94 985 89 992 q 106 968 99 978 q 120 944 114 958 q 126 910 126 931 q 126 802 129 863 q 115 678 122 742 q 98 556 108 615 q 78 451 88 496 q 66 405 69 432 q 60 353 63 378 q 57 292 57 324 q 6 233 21 258 q -9 190 -8 208 q 1 156 -10 171 q 26 130 13 142 q 52 107 39 118 q 71 83 65 96 q 128 4 100 21 q 187 -8 157 -12 q 249 10 217 -3 q 314 21 281 24 q 466 38 407 13 q 552 111 525 64 q 578 220 579 158 q 550 347 576 282 q 552 372 544 360 q 569 394 560 383 q 586 413 579 404 q 585 431 593 422 q 542 459 572 446 q 478 477 511 472 q 419 477 446 482 q 383 451 392 472 q 389 433 378 443 q 414 413 400 422 q 438 399 428 404 q 439 396 447 393 q 410 390 436 396 q 344 371 383 383 q 262 340 306 358 q 182 299 218 322 q 161 301 169 290 q 151 334 153 313 q 151 383 149 356 q 161 438 153 411 q 165 453 167 446 q 160 468 164 460 q 154 488 157 476 q 154 514 151 499 q 175 598 163 550 q 199 699 188 646 q 219 808 211 753 q 224 917 226 864 q 213 957 221 938 q 198 995 206 976 q 185 1033 190 1014 q 182 1069 179 1051 q 202 1118 185 1096 q 237 1162 219 1140 q 265 1205 254 1183 q 265 1250 275 1226 q 245 1273 260 1261 q 210 1285 231 1285 m 467 347 q 474 333 474 347 q 474 298 471 321 q 483 251 478 275 q 496 205 489 226 q 508 174 503 183 q 502 149 514 158 q 470 132 490 139 q 428 121 450 125 q 390 111 406 117 q 344 94 369 103 q 296 81 319 86 q 251 76 272 76 q 217 83 229 75 q 183 119 190 101 q 178 153 175 138 q 195 181 182 168 q 224 201 208 193 q 275 244 250 226 q 320 272 297 260 q 363 278 343 283 q 378 269 372 278 q 390 249 385 260 q 401 228 396 238 q 418 215 407 218 q 423 217 424 213 q 419 231 422 222 q 414 249 417 239 q 411 271 411 260 q 418 294 411 281 q 434 319 425 308 q 452 339 443 331 q 467 347 461 347 "},"C":{"ha":697,"x_min":14,"x_max":567,"o":"m 22 243 q 49 246 31 232 q 86 278 68 260 q 116 309 104 296 q 119 313 128 322 q 63 196 81 239 q 41 130 44 153 q 45 101 38 107 q 66 94 53 94 q 96 97 79 94 q 126 97 113 100 q 133 78 136 94 q 127 38 131 61 q 127 -15 124 14 q 154 -69 131 -43 q 176 -104 169 -85 q 186 -142 183 -124 q 192 -172 189 -160 q 203 -187 194 -185 q 224 -176 215 -193 q 242 -130 233 -158 q 257 -68 250 -101 q 270 -7 264 -35 q 284 35 276 21 q 300 42 292 50 q 351 7 333 8 q 382 19 369 6 q 406 49 394 32 q 439 69 418 67 q 514 104 489 72 q 547 172 539 136 q 551 231 556 207 q 536 243 546 256 q 478 194 500 207 q 444 185 457 182 q 426 201 432 188 q 417 229 421 215 q 408 254 414 243 q 390 264 403 265 l 321 250 q 280 225 294 242 q 254 194 265 208 q 232 174 243 181 q 203 181 221 168 q 192 202 194 186 q 194 248 189 218 q 214 323 199 278 q 258 431 229 368 q 224 501 231 471 q 225 558 218 532 q 248 606 232 583 q 283 650 264 628 q 318 697 301 672 q 342 750 335 721 q 347 774 347 760 q 347 800 347 788 q 349 822 347 813 q 363 833 351 831 q 426 852 389 849 q 497 861 464 856 q 548 881 529 867 q 557 931 567 894 q 524 959 549 949 q 472 976 500 969 q 404 986 440 983 q 392 1011 404 1001 q 369 1021 381 1021 q 329 1010 351 1021 q 288 978 307 999 q 254 927 268 957 q 238 861 240 897 q 169 823 199 850 q 123 758 140 796 q 103 676 106 721 q 113 583 100 631 q 115 515 121 549 q 97 448 110 481 q 67 385 83 415 q 38 328 51 354 q 19 280 25 301 q 22 243 14 258 "},"D":{"ha":601,"x_min":-86,"x_max":385,"o":"m 328 1299 q 307 1275 315 1299 q 293 1215 299 1251 q 285 1135 288 1179 q 279 1049 282 1090 l 244 715 l 168 701 q 91 705 115 717 q 54 668 67 693 q 34 613 42 643 q 8 563 26 583 q -70 473 -54 518 q -76 382 -86 428 q -39 291 -65 336 q 8 201 -12 246 q -6 158 0 179 q -10 122 -10 140 q 1 90 -10 103 q 16 73 7 79 q 35 63 25 67 q 57 56 46 57 q 133 64 101 63 q 185 66 164 65 q 217 69 206 67 q 237 82 229 72 q 249 112 244 92 q 258 167 253 132 q 281 128 271 146 q 297 89 290 110 q 310 42 304 68 q 321 -21 315 15 q 324 -26 321 -24 q 328 -28 325 -28 q 344 15 340 -28 q 349 125 347 58 q 353 271 350 192 q 369 424 357 350 q 379 557 385 497 q 342 653 374 617 q 353 722 342 683 q 372 799 365 761 q 374 869 379 836 q 335 924 368 903 l 363 1111 l 342 1292 q 328 1299 342 1299 m 168 569 l 175 563 q 188 522 178 542 q 212 483 199 501 q 238 452 225 465 q 258 431 250 439 q 260 408 261 422 q 257 378 260 394 q 251 349 254 363 q 244 326 247 335 q 230 313 236 315 q 216 309 224 310 q 200 305 208 308 q 182 292 192 301 q 154 267 167 276 q 126 257 142 257 q 115 258 121 257 q 99 271 110 260 q 71 330 83 303 q 64 389 58 357 q 74 405 67 399 q 90 417 82 411 q 106 428 99 422 q 113 444 113 433 q 122 475 115 454 q 138 517 129 496 q 154 553 146 538 q 168 569 163 569 "},"E":{"ha":736,"x_min":28,"x_max":599,"o":"m 467 743 l 307 792 q 233 788 271 789 q 169 778 196 786 q 132 755 142 771 q 140 708 122 739 q 57 642 78 679 q 37 562 36 604 q 49 475 38 519 q 64 389 61 431 q 47 361 56 376 q 34 333 39 346 q 28 308 29 319 q 36 292 28 297 q 84 238 60 274 q 129 156 108 203 q 165 53 150 110 q 182 -62 179 -3 q 191 -72 185 -68 q 217 -73 197 -75 q 274 -59 236 -71 q 376 -21 311 -47 q 411 -37 394 -33 q 449 -35 428 -42 q 497 -14 469 -29 q 564 28 525 1 l 599 257 l 557 188 l 515 208 l 481 56 l 369 49 l 238 63 l 189 333 l 265 396 q 315 378 294 378 q 353 388 336 378 q 381 415 369 399 q 404 447 393 432 q 494 438 461 439 q 543 443 526 438 q 563 459 560 449 q 566 481 567 469 q 565 505 565 493 q 571 528 564 517 q 561 597 563 557 q 553 672 560 636 q 527 729 546 707 q 467 743 508 751 m 342 681 q 378 677 357 681 q 425 674 399 674 q 415 635 419 656 q 410 597 410 615 q 420 561 411 578 q 453 535 429 544 q 397 481 429 496 q 326 463 364 465 q 248 467 289 461 q 168 479 207 474 l 147 556 l 217 604 l 265 653 q 290 674 271 668 q 342 681 310 681 "},"F":{"ha":740,"x_min":-78,"x_max":538,"o":"m -78 329 l 15 185 q 72 163 46 171 q 64 115 65 139 q 78 64 63 90 q 87 10 83 40 q 95 -53 90 -19 q 109 -126 100 -87 q 133 -207 118 -165 q 140 -349 126 -301 q 176 -410 154 -397 q 219 -404 197 -422 q 251 -349 240 -386 q 272 -306 275 -325 q 256 -267 268 -287 q 231 -222 243 -247 q 224 -161 218 -197 q 231 -144 226 -149 q 240 -139 236 -140 q 242 -134 243 -137 q 231 -118 240 -131 q 192 -81 207 -89 q 168 -69 176 -72 q 160 -60 160 -65 q 168 -35 160 -56 q 166 35 171 -15 q 176 160 161 85 q 182 181 179 167 l 349 219 q 384 238 360 233 q 433 243 408 242 q 476 246 458 244 q 494 254 494 247 q 490 302 496 288 q 472 319 485 317 q 438 316 460 322 q 385 303 417 310 q 312 294 354 297 q 215 297 269 290 q 233 374 226 332 q 240 444 240 417 q 230 475 239 472 q 203 432 221 478 q 168 540 176 496 q 161 615 160 585 q 171 667 163 646 q 187 708 179 689 q 199 746 194 726 q 196 793 203 765 q 209 820 193 808 q 247 840 225 832 q 288 854 268 849 q 314 863 308 860 q 328 878 329 878 q 332 873 328 878 q 358 863 336 868 q 439 863 379 857 q 521 892 504 874 q 519 929 538 911 q 455 962 501 947 q 349 981 408 976 q 285 954 326 957 q 198 956 243 951 q 110 965 153 960 q 43 962 68 969 q 18 928 18 954 q 57 842 18 901 q 60 792 57 818 q 65 742 63 767 q 66 692 67 717 q 57 647 65 668 q 41 608 49 626 q 33 569 33 589 q 40 528 32 550 q 71 481 47 507 q 89 468 82 468 l 85 432 q 82 382 89 399 q 64 357 75 365 q 41 344 53 349 q 24 332 29 340 q -31 335 -4 335 q -78 329 -57 335 "},"G":{"ha":729,"x_min":-49,"x_max":568,"o":"m 175 785 q 117 756 149 785 q 64 653 85 726 q 60 587 56 617 q 72 526 64 557 q 85 457 79 494 q 85 368 90 419 q 40 304 60 336 q 11 245 24 276 q 1 188 -1 214 q 44 135 19 151 q 95 113 69 119 q 146 103 121 107 q 189 90 171 100 q 224 56 210 75 q 254 26 238 38 q 294 14 271 14 q 356 35 317 14 q 377 -42 361 -1 q 406 -123 393 -83 q 422 -199 419 -162 q 404 -264 425 -235 q 379 -276 397 -276 q 338 -270 361 -276 q 290 -255 315 -264 q 245 -240 265 -246 q 213 -235 225 -235 q 203 -250 201 -236 q 185 -301 204 -285 q 138 -319 165 -317 q 79 -314 110 -322 q 28 -291 49 -306 q 2 -258 7 -276 q 22 -222 -3 -239 q 57 -183 43 -207 q 72 -137 71 -160 q 56 -99 72 -115 q 1 -83 40 -83 q -33 -104 -22 -83 q -46 -155 -43 -125 q -46 -218 -49 -185 q -40 -278 -43 -251 q -12 -355 -31 -314 q 43 -417 7 -396 q 128 -449 82 -440 q 220 -454 174 -457 q 313 -437 267 -451 q 397 -403 358 -424 q 458 -369 424 -390 q 518 -323 492 -347 q 556 -272 544 -299 q 550 -222 568 -246 q 482 -93 500 -154 q 457 19 464 -32 q 444 108 450 69 q 411 167 438 146 q 420 210 414 185 q 432 262 426 235 q 439 317 438 289 q 432 368 440 344 q 406 400 424 386 q 374 425 389 414 q 353 445 358 436 q 363 465 347 454 q 379 508 381 478 q 365 568 378 538 q 331 622 351 599 q 293 646 311 646 q 235 660 254 640 q 208 708 217 681 q 193 758 199 735 q 175 785 188 782 m 224 590 q 253 572 244 590 q 263 528 261 554 q 264 473 265 501 q 265 424 263 444 q 277 381 271 403 q 288 337 283 358 q 290 293 292 315 q 279 250 289 271 q 258 218 271 235 q 228 190 244 201 q 194 174 211 178 q 161 181 176 169 q 137 218 138 193 q 145 272 136 243 q 167 332 154 301 q 182 389 179 363 q 184 449 188 415 q 180 513 181 482 q 187 565 179 543 q 224 590 194 588 "},"H":{"ha":815,"x_min":17,"x_max":685,"o":"m 119 1354 q 100 1350 114 1354 q 71 1340 86 1346 q 33 1324 44 1332 q 19 1299 21 1317 q 20 1247 17 1281 q 29 1153 24 1213 q 40 1062 32 1114 q 55 953 47 1010 q 68 842 63 897 q 71 743 74 788 q 46 638 56 689 q 33 546 38 593 q 36 465 28 499 q 52 430 42 450 q 78 389 63 410 q 99 319 78 350 l 113 306 l 92 111 l 99 -56 q 130 1 114 -11 q 160 10 146 14 q 190 -6 175 7 q 217 -28 204 -19 q 257 -35 244 -39 q 271 -16 269 -31 q 266 22 272 -1 q 251 74 260 44 q 232 135 242 103 q 217 201 222 168 q 201 336 204 269 q 208 457 199 403 q 238 546 217 511 q 293 583 260 581 q 349 600 319 604 q 406 574 379 596 q 455 518 433 553 q 488 444 476 483 q 485 340 472 392 q 508 236 497 289 q 526 194 508 210 q 564 174 543 179 q 588 135 585 158 q 588 88 592 113 q 575 36 583 63 q 564 -14 567 10 q 569 -27 558 -22 q 594 -34 579 -32 q 624 -35 610 -36 q 640 -28 638 -33 q 668 2 656 -28 q 683 76 681 32 q 672 172 685 121 q 626 264 660 222 q 590 310 606 290 q 564 340 575 329 q 551 348 558 340 q 540 361 543 356 q 542 364 538 367 q 564 340 546 361 q 576 405 561 376 q 608 456 592 433 q 633 498 625 479 q 626 535 642 517 q 586 564 597 554 q 572 580 575 574 q 568 594 568 586 q 561 615 568 601 q 535 651 554 628 q 474 715 515 675 q 424 685 442 688 q 399 693 407 682 q 388 725 390 704 q 383 766 385 746 q 379 801 382 786 q 368 815 376 815 q 342 794 360 814 q 293 722 324 774 q 263 719 278 717 q 235 725 249 721 q 208 735 221 729 q 182 743 194 740 l 154 889 q 160 1003 154 940 q 169 1118 167 1065 q 166 1207 172 1171 q 133 1243 160 1243 l 126 1243 q 123 1278 118 1258 q 133 1314 128 1297 q 138 1342 139 1331 q 119 1354 138 1354 "},"I":{"ha":413,"x_min":4,"x_max":251,"o":"m 119 1278 l 85 1382 q 29 1340 43 1361 q 17 1299 15 1319 q 31 1257 19 1278 q 50 1215 42 1236 q 28 1160 36 1186 q 15 1110 19 1136 q 15 1063 10 1083 q 34 1023 18 1043 q 69 985 50 1003 q 119 944 92 964 q 202 1074 176 1022 q 232 1160 228 1126 q 223 1214 236 1193 q 189 1250 210 1235 l 119 1278 m 189 743 l 182 910 q 151 853 167 865 q 120 844 135 840 q 91 860 106 847 q 64 882 76 874 q 18 758 33 815 q 8 708 11 733 q 5 662 4 683 q 13 623 6 640 q 36 597 21 606 q 59 597 49 589 q 76 615 69 604 q 92 650 85 629 l 99 299 q 64 206 72 239 q 58 158 56 174 q 71 138 61 142 q 92 132 81 135 l 126 -35 q 117 -117 124 -87 q 111 -160 111 -146 q 120 -178 111 -175 q 158 -182 129 -182 q 208 -178 193 -183 q 224 -160 222 -174 q 221 -124 226 -146 q 209 -68 215 -101 q 201 10 203 -35 q 210 111 200 54 q 235 217 225 165 q 247 308 243 261 q 244 389 251 354 q 226 431 239 407 q 197 474 213 454 q 161 521 181 497 l 189 743 "},"J":{"ha":621,"x_min":15,"x_max":396,"o":"m 144 1186 q 97 1169 121 1183 q 59 1138 74 1156 q 44 1100 44 1119 q 68 1068 44 1081 q 85 1003 76 1033 q 99 948 92 975 q 110 901 106 921 q 128 883 113 882 q 158 890 143 883 q 200 915 176 899 q 242 944 218 936 q 283 965 267 953 q 303 1003 300 978 q 283 1082 307 1028 l 221 1103 q 193 1168 215 1150 q 144 1186 171 1186 m 199 808 q 154 742 169 774 q 144 714 147 728 q 141 688 140 700 q 149 664 142 675 q 172 644 157 653 q 147 574 151 596 q 148 544 143 553 q 165 532 153 535 q 188 519 176 529 q 206 486 199 510 q 210 410 214 463 q 175 322 183 353 q 169 274 167 290 q 182 253 172 258 q 203 243 192 249 l 238 76 q 253 26 246 56 q 265 -38 260 -4 q 272 -109 269 -72 q 276 -181 275 -146 q 279 -354 281 -264 q 238 -358 258 -357 q 199 -353 217 -358 q 169 -335 181 -347 q 154 -299 157 -322 q 127 -165 146 -226 q 87 -65 108 -104 q 45 -16 65 -26 q 15 -35 25 -6 q 57 -230 36 -147 q 98 -370 78 -312 q 138 -461 118 -428 q 175 -507 157 -494 q 231 -517 199 -525 q 296 -477 264 -508 q 353 -394 328 -446 q 390 -271 379 -342 q 394 -174 396 -219 q 389 -83 393 -128 q 378 10 385 -37 q 367 111 372 57 q 382 240 376 179 q 387 347 386 293 q 381 436 388 401 q 362 476 375 454 q 333 517 349 497 q 297 561 317 539 q 275 678 285 636 q 256 742 265 719 q 233 778 246 765 q 199 808 219 790 "},"K":{"ha":753,"x_min":6,"x_max":613,"o":"m 175 1313 l 175 1313 l 154 1264 q 136 1290 144 1293 q 120 1264 128 1288 q 106 1199 113 1240 q 92 1110 99 1158 q 79 1010 85 1061 q 68 913 74 958 q 58 833 63 868 q 50 785 54 799 q 31 715 42 751 q 13 640 19 678 q 6 564 6 603 q 22 486 7 525 q 33 488 25 478 q 51 516 42 497 q 72 558 61 535 q 90 598 82 581 q 103 623 99 615 q 106 618 107 631 l 78 424 l 106 368 q 81 243 90 303 q 67 128 72 183 q 56 24 61 74 q 43 -69 51 -25 q 68 -59 58 -75 q 83 -22 78 -43 q 92 35 89 3 q 138 183 113 93 q 168 382 163 272 l 182 361 l 203 403 q 248 341 229 376 q 281 264 267 306 q 306 176 296 222 q 328 83 317 131 q 356 -22 342 29 q 380 -116 367 -67 q 404 -201 393 -165 l 446 -347 q 467 -387 456 -376 q 486 -397 478 -399 q 499 -381 494 -394 q 501 -347 504 -368 q 495 -240 496 -303 q 494 -112 494 -178 q 494 14 494 -47 q 490 119 494 75 q 475 185 485 164 q 446 188 465 206 l 390 361 q 348 401 374 385 q 298 435 322 417 q 256 477 274 453 q 238 542 238 501 q 261 597 240 575 q 307 635 282 618 q 353 666 332 651 q 376 701 374 681 q 392 780 376 746 q 430 842 407 814 q 479 897 453 871 q 529 951 506 922 l 613 1090 q 588 1080 599 1082 q 564 1073 576 1078 q 535 1057 551 1068 q 497 1019 519 1046 q 444 947 475 993 q 369 826 413 901 l 349 854 q 317 834 331 854 q 289 789 304 814 q 253 740 274 764 q 203 708 233 717 q 175 718 185 703 q 165 757 165 733 q 170 806 164 781 q 189 847 176 832 q 211 892 204 868 q 215 939 218 915 q 201 984 213 963 q 168 1021 189 1006 q 191 1106 178 1063 q 210 1190 204 1150 q 210 1262 217 1229 q 175 1313 204 1294 "},"L":{"ha":642,"x_min":10,"x_max":529,"o":"m 238 1278 q 185 1225 208 1258 q 149 1149 165 1196 q 133 1028 133 1101 q 109 947 118 986 q 95 874 100 908 q 87 810 90 840 q 78 757 83 781 q 65 706 63 731 q 73 658 67 681 q 83 615 79 635 q 78 583 88 596 q 31 523 43 543 q 22 493 19 503 q 37 478 25 483 q 61 465 49 474 q 82 440 74 457 q 85 389 90 424 q 92 349 88 356 q 97 347 96 343 q 92 353 97 350 q 71 340 86 356 q 40 292 47 314 q 33 251 32 271 q 41 213 33 232 q 57 174 49 194 q 66 128 65 153 q 65 79 67 104 q 60 28 63 54 q 57 -21 57 3 q 13 -110 15 -81 q 33 -147 10 -139 q 103 -143 57 -154 q 203 -111 149 -132 q 257 -167 231 -147 q 305 -187 281 -183 q 349 -160 329 -192 q 398 -203 372 -183 q 444 -228 424 -222 q 475 -219 464 -233 q 481 -160 486 -204 q 522 -122 514 -133 q 519 -101 529 -110 q 488 -80 510 -92 q 439 -42 465 -68 q 356 -27 379 -36 q 325 -7 332 -18 q 317 19 318 4 q 300 49 315 33 q 276 42 294 51 q 240 25 258 33 q 207 15 221 17 q 196 28 193 13 q 199 75 203 56 q 187 113 194 94 q 171 153 179 132 q 161 206 163 175 q 168 281 160 236 q 203 389 176 325 q 231 442 215 415 q 255 496 246 469 q 263 548 264 522 q 244 597 263 574 q 238 592 242 603 q 231 569 235 582 q 223 547 226 557 q 217 542 219 536 q 184 656 188 601 q 187 753 181 710 q 203 828 193 797 q 210 871 213 858 q 209 904 201 892 q 228 926 217 917 q 251 947 240 936 q 258 972 261 957 q 234 1034 253 1004 q 210 1090 215 1064 q 217 1151 204 1126 q 242 1197 229 1176 q 258 1235 254 1217 q 238 1278 261 1254 "},"M":{"ha":926,"x_min":-49,"x_max":775,"o":"m 669 1292 q 638 1283 650 1292 q 617 1262 625 1275 q 604 1233 608 1249 q 597 1203 600 1217 q 594 1141 594 1172 q 590 1080 593 1110 q 581 1020 588 1050 q 561 963 575 990 q 521 851 540 910 q 484 733 501 793 q 453 613 467 672 q 428 499 439 553 q 417 385 426 426 q 397 316 408 343 q 374 270 386 289 q 354 226 361 251 q 353 327 349 276 q 361 429 357 378 q 365 531 365 481 q 347 632 364 582 q 327 688 339 661 q 304 743 315 715 q 283 798 293 771 q 268 854 274 825 q 273 906 265 881 q 292 955 281 931 q 315 1003 304 979 q 332 1050 326 1026 q 336 1066 335 1057 q 336 1081 338 1075 q 331 1090 335 1088 q 318 1089 326 1093 q 264 1036 286 1069 q 225 975 242 1003 q 217 941 214 956 q 225 911 219 926 q 216 876 225 892 q 196 842 207 861 q 183 869 196 856 q 154 874 169 883 q 149 863 151 864 q 146 867 147 863 q 143 877 144 871 q 139 886 142 883 q 117 892 128 893 q 96 886 106 892 q 78 872 86 881 q 68 854 71 864 q 34 751 40 806 q 39 644 28 697 q 48 621 39 631 q 68 607 57 611 q 68 189 89 397 q 63 172 76 167 q 28 187 49 176 q -10 204 8 197 q -32 194 -29 211 q -46 130 -43 165 q -47 57 -49 94 q -40 -17 -44 19 q -32 -85 -35 -54 q -18 -117 -32 -104 q 18 -135 -4 -131 q 15 -190 28 -164 q -4 -243 1 -215 q -17 -332 -15 -286 q -25 -421 -19 -378 q -30 -458 -25 -440 q -18 -490 -35 -475 q -1 -489 -7 -493 q 8 -478 6 -485 q 13 -462 11 -471 q 18 -446 15 -453 q 35 -347 33 -397 q 53 -243 38 -296 q 75 -258 60 -253 q 96 -250 90 -264 q 101 -203 101 -226 q 99 -158 101 -181 q 95 -112 97 -135 q 96 -65 93 -89 q 119 -66 110 -69 q 134 -54 128 -62 q 143 -35 140 -46 q 146 -15 146 -25 q 171 201 168 90 q 168 417 174 311 l 168 676 q 182 628 178 653 q 190 578 186 603 q 199 528 193 553 q 218 481 204 504 q 258 374 240 428 q 304 271 276 319 q 294 204 301 238 q 280 138 286 171 q 272 71 274 104 q 282 4 271 38 q 310 -34 288 -19 q 354 -33 332 -49 q 367 -24 360 -29 q 375 -33 375 -19 q 378 -63 378 -49 q 382 -92 379 -78 q 391 -119 385 -107 q 411 -142 397 -132 q 435 -142 425 -146 q 452 -131 446 -139 q 461 -114 458 -124 q 461 -97 464 -104 q 452 -34 456 -64 q 454 29 449 -4 q 471 163 460 96 q 504 296 482 229 q 538 439 526 368 q 561 582 550 510 q 585 423 572 500 q 597 264 597 346 q 590 255 594 254 q 581 260 586 256 q 569 271 576 265 q 554 276 563 276 q 544 264 546 272 q 542 247 542 256 q 542 230 542 239 q 540 214 543 221 q 558 109 546 161 q 583 4 569 57 q 611 -101 597 -49 q 633 -206 625 -153 q 655 -319 639 -262 q 676 -433 671 -375 q 678 -458 679 -446 q 677 -481 678 -469 q 677 -502 676 -492 q 683 -522 678 -512 q 699 -521 693 -525 q 709 -510 706 -517 q 715 -497 713 -504 q 719 -483 717 -489 q 720 -499 719 -490 q 723 -515 721 -508 q 731 -526 725 -522 q 747 -528 736 -531 q 774 -491 774 -518 q 769 -440 775 -464 q 747 -338 747 -392 q 740 -236 746 -285 q 738 -193 738 -215 q 739 -149 739 -171 q 737 -106 739 -126 q 726 -65 735 -85 q 705 -53 721 -50 q 683 -65 689 -56 q 697 1 689 -25 q 715 49 706 26 q 731 97 724 72 q 740 163 738 122 q 733 188 746 178 q 704 189 721 199 q 694 178 699 183 q 690 189 690 174 q 681 264 682 219 q 682 356 681 308 q 685 449 683 404 q 683 525 686 493 q 672 535 683 535 q 661 531 661 536 q 660 629 658 581 q 664 726 663 678 q 664 822 665 775 q 654 918 663 869 q 635 988 633 939 q 646 1092 636 1036 q 665 1203 656 1149 q 669 1292 675 1258 "},"N":{"ha":926,"x_min":3,"x_max":754,"o":"m 640 1104 l 626 1104 q 615 1089 615 1104 q 619 1063 614 1074 q 636 1007 625 1033 q 658 955 647 981 q 677 903 669 929 q 682 847 685 876 q 621 899 650 889 q 577 881 592 910 q 568 783 563 853 q 613 597 574 714 q 589 579 601 589 q 567 558 576 569 q 553 533 557 546 q 557 507 549 519 q 599 393 596 439 q 590 312 603 347 q 560 244 578 276 q 536 174 542 213 q 503 257 533 218 q 436 333 474 296 q 365 407 399 369 q 321 486 331 444 q 262 718 300 607 q 182 944 224 829 q 157 995 169 968 q 133 1042 144 1022 q 113 1069 122 1061 q 96 1065 103 1078 q 86 1014 89 1053 q 85 903 83 975 q 31 856 46 885 q 17 792 17 828 q 27 717 17 757 q 51 635 38 676 q 74 554 64 594 q 85 479 85 514 q 71 478 79 479 q 57 472 63 478 q 56 413 54 439 q 59 361 57 386 q 62 310 61 336 q 57 250 63 283 q 53 240 57 235 q 43 250 49 244 q 15 249 28 261 q 8 222 3 238 q 18 185 8 214 q 41 117 28 156 q 67 35 54 78 q 85 -42 79 -8 q 81 -101 88 -65 q 68 -172 75 -136 q 56 -241 61 -208 q 57 -292 51 -274 q 73 -339 63 -315 q 95 -360 83 -362 q 117 -318 107 -358 q 133 -174 128 -278 q 160 -32 139 -106 q 196 125 181 42 q 197 143 196 133 q 199 163 199 153 q 195 181 199 172 q 182 194 192 189 q 170 188 176 194 q 159 178 164 182 q 151 174 154 174 q 147 188 147 175 q 153 358 142 271 q 175 528 164 444 q 174 428 167 471 q 200 353 182 385 q 242 301 218 322 q 293 264 267 279 q 326 210 303 240 q 369 151 350 181 q 394 94 388 121 q 376 49 400 67 q 364 15 358 35 q 388 -28 369 -4 q 432 -82 407 -53 q 480 -144 457 -111 q 518 -215 503 -178 q 529 -292 533 -251 q 538 -333 524 -312 q 578 -347 551 -353 q 585 -303 586 -335 q 584 -240 585 -271 q 587 -187 583 -208 q 606 -174 590 -165 q 654 -174 632 -189 q 682 -139 676 -160 q 687 -58 690 -103 q 676 31 683 -14 q 661 121 668 76 q 654 201 654 165 q 667 261 654 232 q 695 319 681 290 q 722 377 710 349 q 731 438 733 406 q 719 488 731 458 q 699 544 708 517 q 690 592 690 571 q 710 618 689 613 q 745 655 736 626 q 753 724 754 683 q 742 814 751 765 q 724 910 733 863 q 732 941 729 925 q 724 972 735 957 q 690 1043 708 1008 q 640 1104 672 1078 "},"O":{"ha":544,"x_min":-6,"x_max":476,"o":"m 283 643 q 221 608 254 643 q 156 565 192 582 q 81 525 119 549 q 8 459 22 494 q 2 388 -6 424 q 28 314 10 351 q 54 242 47 276 q 74 135 68 183 q 89 53 79 88 q 118 0 99 18 q 182 -17 138 -18 q 238 -32 219 -12 q 267 -76 257 -51 q 283 -122 276 -101 q 306 -143 290 -143 q 360 -115 331 -143 q 406 -25 390 -87 q 428 43 417 10 q 445 107 439 76 q 449 162 451 138 q 429 203 446 186 q 453 282 442 244 q 469 348 461 314 q 474 404 476 382 q 444 452 469 431 q 390 494 418 474 q 340 535 363 514 q 317 585 317 557 q 310 631 321 618 q 283 643 300 643 m 306 419 q 311 413 311 419 q 331 393 328 406 q 330 364 335 381 q 316 328 325 347 q 299 290 307 310 q 289 252 292 271 q 294 218 286 233 q 325 85 340 133 q 256 38 310 38 q 224 51 232 35 q 214 91 215 67 q 213 142 213 115 q 210 189 214 169 q 200 243 206 208 q 190 308 194 278 q 188 353 186 338 q 200 350 189 368 q 223 321 213 325 q 242 324 233 317 q 259 348 251 332 q 274 380 267 364 q 290 408 282 396 q 306 419 297 419 "},"P":{"ha":582,"x_min":-7,"x_max":467,"o":"m 64 743 l 50 743 q 34 701 38 743 q 29 594 31 658 q 24 450 28 529 q 8 299 21 371 q 2 160 -7 219 q 43 69 11 101 q 31 -1 43 38 q 12 -77 19 -39 q 8 -150 4 -115 q 43 -208 11 -185 l 22 -396 l 36 -576 q 69 -569 57 -589 q 88 -512 82 -550 q 97 -426 94 -475 q 99 -333 99 -378 l 140 0 l 210 21 q 287 13 261 3 q 326 48 313 24 q 347 102 339 72 q 369 153 354 132 q 451 242 435 197 q 456 334 467 288 q 417 427 444 381 q 369 521 390 474 q 386 561 381 542 q 393 597 392 578 q 383 632 394 617 q 344 654 367 647 q 321 660 333 658 q 216 653 253 651 q 161 649 179 654 q 138 622 143 643 q 126 549 132 600 q 103 588 114 569 q 85 627 93 606 q 72 676 76 649 q 64 743 67 704 m 251 465 q 268 460 263 465 q 279 444 274 456 q 308 392 294 418 q 321 333 321 365 q 309 313 318 321 q 290 299 300 306 q 273 287 281 293 q 265 271 265 281 q 258 233 265 258 q 240 186 250 208 q 222 152 231 164 q 210 153 213 140 q 192 194 204 174 q 168 232 181 214 q 144 263 156 250 q 126 285 132 276 q 121 307 121 293 q 123 337 121 321 q 130 367 125 353 q 140 389 135 381 q 152 406 146 401 q 166 412 158 410 q 183 417 174 414 q 203 431 192 419 q 227 453 214 442 q 251 465 240 465 "},"Q":{"ha":899,"x_min":6,"x_max":778,"o":"m 439 882 q 423 875 433 876 q 397 868 413 874 q 322 839 347 850 q 283 820 297 828 q 258 808 268 813 q 231 799 249 804 q 206 806 218 797 q 181 825 193 814 q 156 847 168 836 q 132 858 143 857 q 110 848 121 860 q 92 806 100 836 q 67 698 81 751 q 47 600 54 644 q 44 522 40 556 q 71 472 47 488 q 38 350 53 407 q 15 249 25 300 q 8 167 6 199 q 28 126 11 142 q 69 97 46 110 q 117 72 92 83 q 165 47 143 61 q 202 16 188 33 q 217 -28 217 -1 q 224 -87 214 -69 q 251 -104 233 -106 q 294 -85 269 -103 q 349 -35 319 -67 q 411 17 369 -14 q 494 83 453 47 q 532 32 506 63 q 626 -35 558 1 q 697 -77 663 -56 q 772 -104 731 -99 q 765 -66 778 -83 q 732 -33 753 -49 q 687 -3 711 -18 q 643 26 663 11 q 614 59 624 42 q 613 97 604 76 q 597 120 618 108 q 550 153 576 132 q 578 214 565 179 q 585 285 590 249 q 591 375 583 335 q 610 449 599 415 q 633 512 621 482 q 652 572 646 542 q 657 635 658 603 q 640 708 656 668 q 545 764 575 735 q 501 818 515 793 q 478 859 488 843 q 446 875 469 875 q 439 882 446 882 m 376 743 q 393 739 388 743 q 404 729 399 735 q 432 684 422 718 q 451 608 442 650 q 475 520 461 565 q 515 444 489 475 q 502 407 513 432 q 478 354 492 382 q 453 301 465 326 q 432 264 440 276 q 390 285 421 274 q 356 322 369 296 q 328 368 343 347 q 302 390 317 379 q 275 413 288 401 q 244 438 260 425 q 232 431 232 435 q 236 417 232 426 q 243 392 240 407 q 238 354 246 378 q 249 319 235 339 q 284 279 264 299 q 324 242 304 260 q 356 215 344 225 l 342 201 q 301 167 321 181 q 265 153 281 153 q 224 174 244 153 q 180 258 197 215 q 168 347 163 300 q 170 398 171 363 q 168 473 169 433 q 166 549 167 513 q 168 604 165 586 q 208 638 183 614 q 262 684 233 661 q 320 725 290 707 q 376 743 350 743 "},"R":{"ha":597,"x_min":0,"x_max":469,"o":"m 64 1125 l 57 1125 q 41 1083 44 1125 q 36 976 38 1040 q 31 832 35 911 q 15 681 28 753 q 8 542 0 601 q 43 451 17 483 q 35 381 46 419 q 18 305 25 343 q 15 232 11 267 q 50 174 18 197 l 29 -14 l 43 -194 q 76 -187 64 -207 q 95 -131 89 -168 q 103 -44 101 -93 q 106 49 106 4 l 147 382 q 160 336 154 361 q 167 282 164 314 q 168 208 171 250 q 170 185 165 200 q 183 151 175 171 q 202 106 192 131 q 224 56 213 82 q 255 -6 239 24 q 284 -58 271 -35 q 306 -94 297 -81 q 314 -104 314 -107 l 369 -486 q 396 -489 383 -492 q 417 -477 407 -486 q 432 -444 426 -468 q 429 -401 435 -424 q 416 -354 424 -379 q 401 -302 408 -329 q 390 -243 393 -275 q 392 -179 388 -212 q 400 -115 396 -146 q 407 -56 404 -83 q 404 -7 410 -28 q 384 39 399 14 q 354 86 369 64 q 314 139 336 111 q 336 202 338 169 q 317 268 335 235 q 273 335 300 301 q 217 403 246 369 l 376 535 q 454 624 439 579 q 459 716 469 669 q 423 809 449 763 q 376 903 397 856 q 392 943 386 924 q 397 979 396 960 q 390 1014 397 999 q 351 1036 374 1029 q 328 1042 340 1040 q 284 1033 299 1031 q 261 1044 269 1036 q 247 1064 253 1053 q 231 1083 240 1075 q 148 952 172 1010 q 113 847 124 894 q 94 899 101 868 q 83 968 88 931 q 74 1046 78 1006 q 64 1125 69 1086 m 258 847 q 275 842 269 847 q 286 826 281 838 q 290 803 294 814 q 276 783 285 793 q 257 763 267 774 q 244 736 247 751 q 246 715 242 725 q 256 694 250 704 q 267 673 261 683 q 272 653 272 663 q 265 615 272 640 q 247 568 257 590 q 228 534 238 546 q 217 535 219 522 q 199 576 211 556 q 175 614 188 596 q 151 645 163 632 q 133 667 139 658 q 133 681 128 675 q 146 691 138 686 q 163 701 154 696 q 175 715 172 707 q 185 741 183 728 q 190 767 188 754 q 195 790 192 779 q 210 813 199 801 q 234 835 221 824 q 258 847 247 847 "},"S":{"ha":782,"x_min":-18,"x_max":607,"o":"m 515 576 q 453 556 494 586 q 426 549 440 547 q 397 553 411 550 q 369 558 383 556 q 342 556 354 561 q 311 535 321 550 q 286 514 301 519 q 265 517 275 514 q 244 521 256 521 q 224 520 233 521 q 203 514 214 519 q 178 489 188 508 q 154 458 169 469 q 126 448 143 447 q 99 438 110 449 q 66 394 78 422 q 43 340 54 367 q 27 308 38 325 q 22 285 17 290 q 87 232 58 253 q 142 200 115 211 q 194 188 168 189 q 251 194 219 186 q 290 200 272 200 q 328 194 307 200 q 351 191 340 192 q 371 188 363 190 q 385 178 379 185 q 397 160 392 172 q 414 108 413 126 q 406 79 415 89 q 377 65 396 69 q 335 56 358 61 q 314 55 324 56 q 293 49 304 54 q 273 28 278 43 q 258 7 268 13 q 238 -10 247 -4 q 217 -21 228 -15 q 196 -23 206 -24 q 176 -22 186 -22 q 158 -24 167 -22 q 140 -35 149 -26 q 133 -42 135 -35 q 126 -56 132 -50 q 104 -56 115 -61 q 81 -44 93 -51 q 55 -31 68 -37 q 29 -28 42 -25 q 17 -41 24 -31 q 6 -65 11 -51 q -5 -90 0 -78 q -12 -111 -10 -103 q -15 -128 -12 -117 q -12 -139 -18 -139 q -3 -137 -7 -142 q 4 -125 1 -132 q 10 -113 7 -118 q 15 -111 13 -108 q 93 -122 42 -132 q 203 -97 144 -112 q 219 -97 211 -94 q 234 -104 226 -100 q 249 -111 242 -108 q 265 -111 257 -114 q 281 -100 275 -108 q 293 -82 288 -92 q 304 -63 299 -72 q 321 -49 310 -54 q 338 -48 329 -46 q 356 -52 346 -50 q 374 -56 365 -54 q 390 -56 382 -58 q 446 -21 422 -44 q 481 35 469 3 q 481 59 486 46 q 481 83 475 72 q 498 106 486 99 q 515 125 510 114 q 524 158 521 140 q 515 188 526 176 q 499 217 510 203 q 474 236 489 231 q 445 259 458 251 q 411 278 432 267 q 377 285 400 283 q 349 292 354 286 q 281 299 317 307 q 203 285 244 290 q 178 301 190 290 q 156 325 165 313 q 142 348 147 338 q 140 361 138 358 q 151 379 146 367 q 168 403 157 392 q 178 403 174 406 q 185 399 182 401 q 193 395 189 397 q 203 396 197 393 q 216 408 213 404 q 220 417 219 413 q 224 425 221 421 q 238 438 226 429 q 271 446 253 449 q 300 438 289 443 q 317 442 306 438 q 341 451 328 446 q 369 461 354 457 q 397 465 385 465 q 481 465 439 475 q 500 470 488 465 q 524 482 513 475 q 550 500 538 489 q 580 508 565 500 q 601 525 594 515 q 603 544 607 535 q 578 556 599 553 q 547 566 557 556 q 515 576 536 576 "},"T":{"ha":706,"x_min":6,"x_max":624,"o":"m 363 1326 q 303 1224 328 1279 q 263 1113 281 1175 q 244 979 244 1050 q 220 899 229 938 q 206 824 211 860 q 198 758 201 789 q 189 701 194 728 q 176 670 174 675 q 184 667 178 665 q 194 671 190 669 q 189 660 199 672 q 151 641 174 644 q 113 632 128 638 q 101 619 104 626 q 92 605 97 611 q 77 597 86 599 q 50 604 68 596 q 19 590 29 610 q 8 556 8 571 q 17 540 6 544 q 44 531 29 535 q 74 522 60 528 q 92 507 89 517 q 116 486 100 492 q 149 478 132 481 q 179 475 165 476 q 196 465 193 474 q 201 404 199 432 q 204 353 204 376 q 199 312 204 331 q 182 278 194 293 q 151 230 158 251 q 144 189 143 208 q 152 151 144 169 q 168 111 160 132 q 177 66 176 90 q 176 17 178 42 q 171 -34 174 -8 q 168 -83 168 -60 q 166 -149 169 -125 q 157 -187 163 -174 q 147 -209 151 -201 q 142 -224 143 -217 q 147 -244 142 -232 q 168 -278 153 -256 q 208 -199 196 -231 q 226 -145 221 -168 q 230 -104 231 -122 q 231 -68 229 -86 q 239 -28 232 -50 q 265 28 246 -6 q 276 58 275 40 q 272 98 276 76 q 263 144 268 119 q 258 194 258 168 q 289 251 281 207 q 299 343 297 294 q 293 465 300 399 q 351 410 324 429 q 401 389 375 393 q 446 417 426 385 q 495 371 469 390 q 541 347 521 351 q 572 357 561 342 q 578 417 583 372 q 616 455 608 443 q 615 476 624 467 q 584 497 606 485 q 536 535 563 508 q 479 567 507 564 q 430 565 451 569 q 397 558 408 561 q 390 569 385 554 q 399 589 396 579 q 399 607 401 597 q 390 625 397 617 q 374 621 385 628 q 349 607 363 614 q 321 597 336 600 q 293 604 306 593 q 297 632 288 610 q 319 685 307 654 q 338 749 331 715 q 335 813 344 783 q 331 856 326 833 q 344 901 336 879 q 358 944 351 924 q 363 979 365 964 q 354 1001 360 994 q 342 1010 349 1007 q 329 1020 335 1014 q 321 1042 324 1026 q 330 1115 315 1075 q 360 1194 344 1156 q 381 1268 375 1233 q 363 1326 386 1303 "},"U":{"ha":699,"x_min":3,"x_max":594,"o":"m 543 785 q 512 780 528 785 q 501 764 496 775 q 509 714 501 740 q 522 663 517 688 q 525 615 528 638 q 501 576 522 592 q 463 553 481 571 q 446 514 446 535 q 420 410 431 461 q 425 306 410 358 q 392 232 414 267 q 341 176 369 197 q 283 150 313 154 q 231 167 254 146 q 174 189 189 167 q 160 245 160 211 q 171 318 161 279 q 188 389 181 357 q 192 441 194 421 q 168 458 190 461 q 149 416 160 438 q 129 381 139 394 q 113 366 119 368 q 106 382 106 364 q 117 462 108 424 q 138 538 126 500 q 162 612 150 575 q 182 688 174 649 l 182 694 q 163 688 169 682 q 153 703 157 694 q 145 716 149 713 q 133 701 142 719 q 114 647 125 686 q 90 563 103 607 q 63 481 76 519 q 36 431 49 443 q 9 350 15 394 q 8 264 3 306 q 32 231 14 243 q 71 229 50 218 q 59 175 65 203 q 51 119 53 147 q 54 64 49 90 q 78 14 60 38 q 114 4 96 1 q 151 15 132 7 q 188 26 169 22 q 224 21 206 31 q 274 -49 256 -29 q 303 -68 293 -68 q 315 -53 313 -68 q 320 -17 318 -37 q 324 25 322 4 q 335 57 326 46 q 362 65 344 68 q 411 35 379 63 q 472 99 453 75 q 497 135 490 122 q 503 156 504 149 q 506 170 503 164 q 520 186 508 176 q 564 215 532 196 q 563 231 572 221 q 540 252 554 240 q 514 276 526 264 q 501 299 501 288 q 495 325 493 319 q 502 334 497 331 q 510 344 507 338 q 508 375 514 351 q 515 403 508 390 q 531 427 522 415 q 549 451 540 439 q 564 479 558 464 q 574 510 574 494 q 572 542 575 526 q 567 576 569 558 q 571 611 565 593 q 580 653 574 632 q 590 694 586 674 q 592 733 594 714 q 578 771 590 753 q 563 781 572 776 q 543 785 554 785 "},"V":{"ha":531,"x_min":0,"x_max":419,"o":"m 369 889 q 344 839 354 889 q 328 715 333 789 q 324 637 322 668 q 329 585 325 606 q 338 551 333 564 q 342 528 342 538 q 333 510 339 501 q 317 535 326 519 q 297 559 308 550 q 272 542 285 568 q 275 481 272 521 q 279 397 278 442 q 278 308 281 351 q 265 236 275 265 q 242 203 257 213 q 213 188 228 194 q 186 172 197 181 q 175 139 175 163 l 119 611 l 92 736 l 50 875 q 26 840 29 864 q 43 757 22 815 q 3 677 7 724 q 12 578 0 631 q 41 472 24 526 q 64 368 58 418 l 85 194 q 77 162 79 183 q 77 114 75 140 q 85 60 79 88 q 101 11 90 32 q 129 -22 113 -10 q 168 -28 146 -33 q 172 -101 168 -82 q 183 -126 175 -121 q 201 -131 190 -131 q 224 -146 211 -131 q 230 -125 226 -137 q 236 -90 233 -112 q 240 -32 239 -67 q 238 56 240 3 q 252 77 240 69 q 279 90 264 85 q 310 103 294 96 q 337 122 325 110 q 355 155 349 135 q 356 208 361 175 q 358 283 356 242 q 367 364 361 325 q 385 432 374 403 q 411 472 396 461 q 414 558 411 519 q 418 638 417 597 q 417 727 419 679 q 404 840 414 775 q 384 878 393 867 q 369 889 375 889 "},"W":{"ha":747,"x_min":-6,"x_max":660,"o":"m 613 1292 q 606 1280 607 1292 q 603 1255 604 1268 q 602 1233 603 1242 q 599 1229 601 1224 q 565 1233 572 1229 q 557 1222 557 1238 q 555 1133 554 1189 q 549 1024 556 1078 q 526 931 543 971 q 474 889 510 892 q 476 822 465 844 q 504 781 488 800 q 535 740 521 763 q 550 674 550 718 q 545 651 550 668 q 533 610 540 633 q 517 563 525 588 q 502 519 508 539 q 494 487 496 499 q 494 479 492 475 q 490 385 494 432 q 481 292 486 339 q 451 440 469 371 q 418 583 433 510 q 406 698 413 642 q 411 813 400 754 q 407 836 414 825 q 390 853 400 847 q 368 858 379 860 q 349 847 357 857 q 330 806 333 832 q 321 764 326 779 q 296 769 308 772 q 274 757 283 767 q 258 734 264 747 q 251 708 251 721 q 244 651 243 679 q 251 594 246 622 q 260 540 256 567 q 265 486 265 513 q 227 378 244 433 q 189 271 210 324 q 186 269 186 263 q 187 286 186 275 q 188 309 188 297 q 189 326 189 321 q 189 544 189 436 q 168 757 189 653 q 126 799 157 788 q 129 836 126 817 q 134 875 132 856 q 135 914 136 894 q 126 951 135 933 q 92 951 115 963 q 84 1003 86 978 q 78 1055 82 1029 q 69 1105 75 1081 q 50 1153 63 1129 q 38 1161 44 1161 q 25 1157 31 1161 q 16 1144 19 1153 q 15 1125 13 1135 q 22 1000 21 1063 q 50 875 24 938 q 51 855 56 864 q 36 840 47 846 q 15 815 21 829 q 8 783 10 800 q 7 749 7 767 q 1 715 7 731 q -5 622 -4 668 q 15 535 -6 576 q 32 528 24 526 q 50 535 40 529 q 68 547 60 540 q 85 556 76 553 q 97 491 90 511 q 109 455 104 471 q 116 419 114 439 q 113 354 118 399 q 97 317 101 346 q 92 255 93 289 q 91 190 90 221 q 92 146 92 158 q 99 111 92 125 q 117 85 106 97 q 142 62 128 74 q 168 35 156 50 q 172 14 171 31 q 171 -26 172 -3 q 168 -76 169 -50 q 165 -122 167 -101 q 164 -153 164 -142 q 168 -160 164 -165 q 183 -162 174 -165 q 203 -153 192 -158 q 210 -174 211 -164 q 206 -195 208 -185 q 203 -216 204 -206 q 210 -236 201 -226 q 243 -301 225 -268 q 293 -354 261 -333 q 308 -347 303 -354 q 316 -331 314 -340 q 317 -313 318 -322 q 314 -299 317 -304 q 302 -237 306 -272 q 299 -167 299 -203 q 305 -96 300 -131 q 321 -35 310 -61 q 336 46 331 1 q 343 136 342 90 q 342 228 344 182 q 335 313 340 274 q 351 251 342 274 q 371 212 360 228 q 394 184 382 196 q 419 156 406 172 q 446 117 432 140 q 474 56 460 93 q 487 -3 483 26 q 491 -62 490 -32 q 494 -122 492 -93 q 508 -181 497 -151 q 535 -206 519 -196 q 571 -215 550 -215 q 571 -137 576 -176 q 558 -59 565 -99 q 546 19 550 -19 q 550 97 542 58 q 565 167 565 128 q 571 243 565 207 l 571 250 q 564 243 571 243 q 565 224 564 219 q 567 241 567 229 q 569 260 568 253 q 571 250 571 268 q 582 260 579 253 q 585 276 585 267 q 585 294 586 285 q 585 313 585 304 q 582 431 585 371 q 585 549 579 490 q 603 542 594 540 q 619 551 613 544 q 627 569 625 558 q 626 590 629 579 q 611 674 626 632 q 585 757 596 715 q 606 760 597 754 q 619 774 614 765 q 625 794 624 783 q 626 813 626 804 q 627 895 626 854 q 633 972 628 936 q 635 1029 633 993 q 639 1103 636 1065 q 645 1176 642 1142 q 654 1229 649 1211 q 649 1271 660 1250 q 613 1292 639 1292 "},"X":{"ha":865,"x_min":13,"x_max":767,"o":"m 515 910 q 463 893 486 908 q 425 853 443 881 q 404 778 407 826 q 373 755 381 772 q 364 717 365 738 q 363 676 363 696 q 356 646 364 656 q 338 640 342 649 q 337 618 335 632 q 344 587 339 604 q 353 556 350 569 q 357 533 357 542 q 349 528 357 524 q 313 559 340 533 q 254 616 286 585 q 193 676 222 647 q 154 715 164 704 q 138 724 143 724 q 126 728 133 724 q 106 745 118 732 q 71 792 94 758 q 30 827 44 824 q 15 819 15 831 q 28 793 13 814 q 63 747 43 772 q 102 697 83 722 q 126 660 121 672 q 155 611 135 639 q 197 556 175 583 q 235 508 218 529 q 251 479 251 488 q 267 420 257 450 q 284 367 278 390 q 288 333 290 344 q 265 333 286 322 q 222 345 233 349 q 212 327 211 342 q 221 290 213 313 q 238 243 229 267 q 249 199 247 217 q 248 166 250 181 q 242 137 246 151 q 238 104 238 122 q 228 49 238 72 q 207 7 219 26 q 182 -31 194 -12 q 161 -69 169 -49 q 158 -118 156 -90 q 175 -187 160 -146 q 204 -185 193 -193 q 223 -164 215 -178 q 235 -133 231 -150 q 244 -104 239 -117 q 259 -40 254 -74 q 272 19 264 -7 q 292 60 279 44 q 335 69 306 75 q 344 77 344 64 q 339 111 343 90 q 330 156 335 132 q 328 194 325 179 q 353 182 343 182 q 371 190 364 182 q 381 210 378 197 q 386 240 385 224 q 383 333 389 278 q 454 210 418 265 q 518 122 485 163 q 578 76 551 82 q 635 -14 608 24 q 681 -68 663 -51 q 710 -78 700 -85 q 717 -35 719 -71 q 758 -9 750 -19 q 756 15 767 1 q 720 50 746 28 q 661 111 694 72 q 621 149 646 132 q 572 181 596 165 q 532 215 549 197 q 515 257 515 233 q 527 259 515 260 q 547 263 539 258 q 553 278 556 267 q 522 319 551 290 q 474 361 493 347 q 444 381 456 375 q 425 388 432 386 q 413 392 418 389 q 403 403 408 396 q 390 431 399 411 q 396 458 382 443 q 426 491 410 472 q 454 535 443 510 q 453 597 465 561 q 440 636 444 624 q 431 656 435 649 q 424 672 426 664 q 418 694 421 679 q 420 716 415 707 q 432 733 425 725 q 444 752 439 742 q 446 778 449 763 q 449 809 440 800 q 472 822 457 818 q 501 826 486 825 q 526 834 517 826 q 535 858 536 842 q 515 910 535 875 "},"Y":{"ha":671,"x_min":25,"x_max":542,"o":"m 54 892 l 44 903 q 40 890 39 901 q 39 872 42 879 q 61 800 49 836 q 76 732 74 764 q 66 669 57 704 q 85 597 75 633 q 113 518 96 557 q 156 443 129 479 q 181 389 172 421 q 186 329 189 357 q 197 319 189 319 q 211 322 204 319 q 223 326 218 325 q 225 318 228 326 q 227 273 222 296 q 238 227 232 250 q 244 182 243 204 q 238 142 246 160 q 215 117 231 129 q 185 92 199 104 q 167 70 172 81 q 175 53 163 60 q 196 28 192 39 q 197 9 200 18 q 188 -8 194 0 q 175 -26 181 -17 q 165 -53 163 -43 q 174 -72 167 -64 q 189 -88 181 -81 q 197 -107 197 -96 q 185 -137 196 -124 q 164 -165 175 -151 q 145 -193 153 -179 q 142 -222 138 -207 q 145 -243 147 -235 q 137 -260 143 -251 q 124 -278 131 -268 q 113 -303 117 -287 q 98 -362 108 -333 q 76 -419 88 -392 q 52 -476 64 -447 q 32 -533 40 -504 q 35 -558 25 -557 q 63 -545 44 -558 q 106 -508 82 -532 q 151 -456 129 -483 q 191 -401 174 -428 q 214 -354 208 -374 l 283 -54 q 288 -1 289 -19 q 301 38 286 17 q 328 79 319 53 q 340 133 338 106 q 354 171 343 153 q 378 206 365 189 q 402 240 390 222 q 417 276 414 257 q 424 315 415 299 q 433 346 432 331 q 464 399 454 368 q 482 460 474 431 q 503 502 492 482 q 523 542 514 522 q 537 582 532 561 q 538 626 542 603 q 478 556 508 592 q 424 488 447 521 q 409 442 426 461 q 371 415 392 422 q 360 399 367 411 q 348 376 354 388 q 336 359 342 365 q 329 361 331 353 q 310 417 325 393 q 272 461 294 440 q 260 504 264 481 q 249 551 256 528 q 232 594 243 574 q 199 628 221 615 q 126 759 158 693 q 54 892 94 825 "},"Z":{"ha":900,"x_min":11,"x_max":775,"o":"m 67 1111 q 52 1110 60 1111 q 40 1104 44 1110 q 19 1042 26 1076 q 11 976 11 1008 q 33 987 21 982 q 58 993 44 992 q 83 991 71 994 q 104 976 94 988 q 112 949 113 964 q 108 921 111 935 q 102 894 104 907 q 106 871 100 881 q 147 883 126 876 q 190 894 168 890 q 234 899 211 899 q 281 892 257 900 q 349 906 311 914 q 424 878 388 899 q 480 874 454 872 q 536 864 506 875 q 456 808 493 842 q 406 715 419 774 q 383 639 390 678 q 369 559 375 600 q 358 477 364 518 q 343 397 353 436 q 322 380 333 386 q 299 368 311 374 q 276 356 288 363 q 256 340 265 350 q 210 285 229 317 q 174 217 190 253 q 144 144 158 181 q 117 72 131 107 q 81 49 101 56 q 51 22 61 43 q 84 18 67 22 q 104 -12 101 14 q 112 -17 107 -18 q 122 -12 117 -15 q 132 -6 126 -8 q 142 -6 138 -3 q 186 8 164 3 q 231 15 208 14 q 276 9 254 15 q 319 -12 299 3 q 408 -41 364 -35 q 486 -21 451 -47 q 526 -8 506 -10 q 568 -4 547 -6 q 609 1 589 -3 q 646 22 629 6 q 674 23 660 28 q 702 10 689 18 q 728 -5 715 3 q 754 -12 742 -12 q 765 2 760 -7 q 773 21 771 11 q 772 39 775 31 q 758 50 768 47 q 723 63 740 58 q 688 72 706 67 q 653 84 671 76 q 619 107 636 92 q 583 128 601 113 q 549 143 565 143 q 550 118 547 132 q 554 91 553 104 q 553 67 556 78 q 538 50 550 56 q 485 42 511 42 q 431 48 458 43 q 378 60 404 53 q 326 72 351 67 q 282 81 304 78 q 246 100 260 85 q 237 118 239 108 q 238 135 235 128 q 247 148 240 143 q 263 150 254 153 q 285 163 276 153 q 299 188 293 174 q 310 219 306 203 q 322 249 315 235 q 356 295 335 275 q 401 326 378 315 q 424 358 415 339 q 437 399 432 378 q 445 441 442 419 q 454 482 449 463 q 471 547 464 514 q 496 594 478 579 q 509 597 501 600 q 524 589 517 593 q 537 582 531 585 q 546 588 543 579 q 571 659 563 619 q 585 740 579 699 q 601 820 592 781 q 632 892 611 860 q 642 898 636 897 q 652 900 647 899 q 660 906 657 901 q 663 921 664 910 q 660 941 665 936 q 643 935 654 946 q 608 972 632 953 q 553 1002 583 990 q 492 1013 522 1014 q 439 990 461 1011 q 384 970 415 969 q 319 984 353 971 q 249 1019 285 997 q 179 1061 213 1040 q 117 1097 146 1082 q 67 1111 88 1111 "},"b":{"ha":681,"x_min":-10,"x_max":593,"o":"m 210 1285 q 199 1281 204 1285 q 189 1271 194 1276 q 155 1217 168 1247 q 132 1151 142 1186 q 113 1077 122 1115 q 92 1000 104 1039 q 94 985 89 992 q 106 968 99 978 q 120 944 114 958 q 126 910 126 931 q 126 802 129 863 q 115 678 122 742 q 98 556 108 615 q 78 451 88 496 q 66 405 69 432 q 60 353 63 378 q 57 292 57 324 q 6 233 21 258 q -9 190 -8 208 q 1 156 -10 171 q 26 130 13 142 q 52 107 39 118 q 71 83 65 96 q 128 4 100 21 q 187 -8 157 -12 q 249 10 217 -3 q 314 21 281 24 q 466 38 407 13 q 552 111 525 64 q 578 220 579 158 q 550 347 576 282 q 552 372 544 360 q 569 394 560 383 q 586 413 579 404 q 585 431 593 422 q 542 459 572 446 q 478 477 511 472 q 419 477 446 482 q 383 451 392 472 q 389 433 378 443 q 414 413 400 422 q 438 399 428 404 q 439 396 447 393 q 410 390 436 396 q 344 371 383 383 q 262 340 306 358 q 182 299 218 322 q 161 301 169 290 q 151 334 153 313 q 151 383 149 356 q 161 438 153 411 q 165 453 167 446 q 160 468 164 460 q 154 488 157 476 q 154 514 151 499 q 175 598 163 550 q 199 699 188 646 q 219 808 211 753 q 224 917 226 864 q 213 957 221 938 q 198 995 206 976 q 185 1033 190 1014 q 182 1069 179 1051 q 202 1118 185 1096 q 237 1162 219 1140 q 265 1205 254 1183 q 265 1250 275 1226 q 245 1273 260 1261 q 210 1285 231 1285 m 467 347 q 474 333 474 347 q 474 298 471 321 q 483 251 478 275 q 496 205 489 226 q 508 174 503 183 q 502 149 514 158 q 470 132 490 139 q 428 121 450 125 q 390 111 406 117 q 344 94 369 103 q 296 81 319 86 q 251 76 272 76 q 217 83 229 75 q 183 119 190 101 q 178 153 175 138 q 195 181 182 168 q 224 201 208 193 q 275 244 250 226 q 320 272 297 260 q 363 278 343 283 q 378 269 372 278 q 390 249 385 260 q 401 228 396 238 q 418 215 407 218 q 423 217 424 213 q 419 231 422 222 q 414 249 417 239 q 411 271 411 260 q 418 294 411 281 q 434 319 425 308 q 452 339 443 331 q 467 347 461 347 "},"c":{"ha":697,"x_min":14,"x_max":567,"o":"m 22 243 q 49 246 31 232 q 86 278 68 260 q 116 309 104 296 q 119 313 128 322 q 63 196 81 239 q 41 130 44 153 q 45 101 38 107 q 66 94 53 94 q 96 97 79 94 q 126 97 113 100 q 133 78 136 94 q 127 38 131 61 q 127 -15 124 14 q 154 -69 131 -43 q 176 -104 169 -85 q 186 -142 183 -124 q 192 -172 189 -160 q 203 -187 194 -185 q 224 -176 215 -193 q 242 -130 233 -158 q 257 -68 250 -101 q 270 -7 264 -35 q 284 35 276 21 q 300 42 292 50 q 351 7 333 8 q 382 19 369 6 q 406 49 394 32 q 439 69 418 67 q 514 104 489 72 q 547 172 539 136 q 551 231 556 207 q 536 243 546 256 q 478 194 500 207 q 444 185 457 182 q 426 201 432 188 q 417 229 421 215 q 408 254 414 243 q 390 264 403 265 l 321 250 q 280 225 294 242 q 254 194 265 208 q 232 174 243 181 q 203 181 221 168 q 192 202 194 186 q 194 248 189 218 q 214 323 199 278 q 258 431 229 368 q 224 501 231 471 q 225 558 218 532 q 248 606 232 583 q 283 650 264 628 q 318 697 301 672 q 342 750 335 721 q 347 774 347 760 q 347 800 347 788 q 349 822 347 813 q 363 833 351 831 q 426 852 389 849 q 497 861 464 856 q 548 881 529 867 q 557 931 567 894 q 524 959 549 949 q 472 976 500 969 q 404 986 440 983 q 392 1011 404 1001 q 369 1021 381 1021 q 329 1010 351 1021 q 288 978 307 999 q 254 927 268 957 q 238 861 240 897 q 169 823 199 850 q 123 758 140 796 q 103 676 106 721 q 113 583 100 631 q 115 515 121 549 q 97 448 110 481 q 67 385 83 415 q 38 328 51 354 q 19 280 25 301 q 22 243 14 258 "},"f":{"ha":740,"x_min":-78,"x_max":538,"o":"m -78 329 l 15 185 q 72 163 46 171 q 64 115 65 139 q 78 64 63 90 q 87 10 83 40 q 95 -53 90 -19 q 109 -126 100 -87 q 133 -207 118 -165 q 140 -349 126 -301 q 176 -410 154 -397 q 219 -404 197 -422 q 251 -349 240 -386 q 272 -306 275 -325 q 256 -267 268 -287 q 231 -222 243 -247 q 224 -161 218 -197 q 231 -144 226 -149 q 240 -139 236 -140 q 242 -134 243 -137 q 231 -118 240 -131 q 192 -81 207 -89 q 168 -69 176 -72 q 160 -60 160 -65 q 168 -35 160 -56 q 166 35 171 -15 q 176 160 161 85 q 182 181 179 167 l 349 219 q 384 238 360 233 q 433 243 408 242 q 476 246 458 244 q 494 254 494 247 q 490 302 496 288 q 472 319 485 317 q 438 316 460 322 q 385 303 417 310 q 312 294 354 297 q 215 297 269 290 q 233 374 226 332 q 240 444 240 417 q 230 475 239 472 q 203 432 221 478 q 168 540 176 496 q 161 615 160 585 q 171 667 163 646 q 187 708 179 689 q 199 746 194 726 q 196 793 203 765 q 209 820 193 808 q 247 840 225 832 q 288 854 268 849 q 314 863 308 860 q 328 878 329 878 q 332 873 328 878 q 358 863 336 868 q 439 863 379 857 q 521 892 504 874 q 519 929 538 911 q 455 962 501 947 q 349 981 408 976 q 285 954 326 957 q 198 956 243 951 q 110 965 153 960 q 43 962 68 969 q 18 928 18 954 q 57 842 18 901 q 60 792 57 818 q 65 742 63 767 q 66 692 67 717 q 57 647 65 668 q 41 608 49 626 q 33 569 33 589 q 40 528 32 550 q 71 481 47 507 q 89 468 82 468 l 85 432 q 82 382 89 399 q 64 357 75 365 q 41 344 53 349 q 24 332 29 340 q -31 335 -4 335 q -78 329 -57 335 "}}}
